<svg width="100" height="102" viewBox="0 0 100 102" fill="none" xmlns="http://www.w3.org/2000/svg">
<path d="M71.0508 47.3094C70.834 47.9641 70.834 48.6986 70.834 50.1675V68.8296C70.834 70.2985 70.834 71.0329 71.0508 71.6877C71.6683 73.5518 73.2757 74.298 74.9059 75.0547L75.0052 75.1008C76.8756 75.9698 77.8108 76.4042 78.7375 76.4807C79.7894 76.5675 80.8433 76.3363 81.7423 75.8216C82.5344 75.3681 83.1617 74.5909 84.4164 73.0364C84.8807 72.4613 85.3757 71.8774 85.8805 71.2822C88.0425 68.7323 90.3817 65.9735 91.232 62.7984C91.8124 60.6315 91.8124 58.3655 91.232 56.1986C90.5129 53.5135 88.5475 51.0787 84.6169 46.2089C84.4482 46 84.2803 45.7815 84.1102 45.5602C83.4221 44.6647 82.6981 43.7226 81.7423 43.1755C80.8433 42.6608 79.7894 42.4296 78.7375 42.5164C77.8108 42.5928 76.8756 43.0273 75.0052 43.8963L74.9059 43.9424C73.2757 44.6991 71.6683 45.4453 71.0508 47.3094Z" fill="#0F525B"/>
<path d="M27.6503 45.3554C29.1164 46.6559 29.1673 48.3183 29.1673 50.1682V68.8303C29.1673 70.6801 29.1164 72.3426 27.6503 73.6431C27.117 74.1161 26.41 74.4446 24.9961 75.1015C23.1257 75.9705 22.1905 76.4049 21.2638 76.4814C18.608 76.7005 17.131 74.9527 15.5849 73.0371C15.1206 72.462 14.6256 71.8781 14.1208 71.2829C11.9588 68.733 9.61965 65.9742 8.76925 62.7991C8.18889 60.6322 8.18889 58.3662 8.76925 56.1993C9.48841 53.5142 11.4538 51.0793 15.3845 46.2096C15.4189 46.1669 15.4533 46.1243 15.4876 46.0817C17.0526 44.1411 18.5433 42.2927 21.2638 42.5171C22.1905 42.5935 23.1257 43.028 24.9961 43.897C26.41 44.5539 27.117 44.8823 27.6503 45.3554Z" fill="#0F525B"/>
<path fill-rule="evenodd" clip-rule="evenodd" d="M50.0006 11.687C32.912 11.687 19.7923 23.9659 19.7923 38.2495V39.3786C20.3314 39.3075 20.9051 39.2907 21.5157 39.3411C23.0061 39.464 24.4289 40.1282 25.9409 40.8339L26.2914 40.9973L26.5639 41.1235C27.7001 41.649 28.8132 42.1637 29.701 42.9513C32.2963 45.2535 32.2938 48.2921 32.2924 50.0491V68.9515C32.2938 70.7085 32.2963 73.7472 29.701 76.0494C28.8139 76.8363 27.7021 77.3507 26.5669 77.876L26.2914 78.0031L25.9412 78.1668C24.4304 78.8717 23.0051 79.5366 21.5157 79.6598C17.1614 80.0189 14.7223 76.9893 13.2894 75.2094L13.1723 75.0643C12.8091 74.6142 12.3619 74.0855 11.8791 73.5147C10.9962 72.4714 9.99403 71.2869 9.16753 70.1836C7.80232 68.3612 6.43428 66.1775 5.75472 63.6403C5.02707 60.9233 5.02707 58.0774 5.75472 55.3604C6.24784 53.5193 7.14003 51.8946 8.31778 50.189C9.45751 48.5386 10.9927 46.6367 12.8909 44.285L12.972 44.1846C13.0493 44.0889 13.1302 43.9873 13.2149 43.881C13.3177 43.752 13.428 43.6134 13.5423 43.4722V38.2495C13.5423 19.6721 30.2703 5.31201 50.0006 5.31201C69.7311 5.31201 86.459 19.6721 86.459 38.2495V43.4507C86.5441 43.5602 86.6256 43.6656 86.7003 43.7622L86.711 43.7761C86.8471 43.9519 86.9611 44.0992 87.0294 44.1838L87.1065 44.2792C89.0065 46.6332 90.5428 48.5366 91.6836 50.1882C92.8611 51.8937 93.7536 53.5185 94.2465 55.3596C94.974 58.0766 94.974 60.9224 94.2465 63.6394C93.5669 66.1767 92.199 68.3603 90.8336 70.1827C90.0073 71.286 89.0053 72.4705 88.1223 73.5139C87.6394 74.0847 87.1924 74.6133 86.829 75.0634L86.5886 75.3618C86.5388 75.4237 86.4891 75.4857 86.4394 75.5475C86.2792 80.2686 85.1385 84.1477 83.0398 87.2439C80.7669 90.5972 77.5736 92.732 74.0144 94.0932C67.2302 96.6883 58.4273 96.6879 50.3936 96.687H50.0006C48.2748 96.687 46.8756 95.2599 46.8756 93.4995C46.8756 91.7392 48.2748 90.312 50.0006 90.312C58.5286 90.312 66.2152 90.2682 71.8202 88.1241C74.5111 87.0952 76.5261 85.6438 77.899 83.6183C78.6132 82.5646 79.2083 81.2746 79.6156 79.6752C79.2398 79.6953 78.8622 79.69 78.4857 79.659C76.9967 79.5358 75.5752 78.8728 74.0644 78.1681L73.7098 78.0023L73.4382 77.8778C71.954 77.2016 69.1561 75.9266 68.0903 72.7089C67.7028 71.5385 67.7057 70.2877 67.7086 69.1236L67.709 68.8304V50.1682L67.7086 49.8754C67.7057 48.7113 67.7028 47.4601 68.0903 46.2901C69.1561 43.0725 71.954 41.7973 73.4382 41.1211C73.5344 41.0771 73.6253 41.0357 73.7098 40.9964L74.0598 40.8332C75.5719 40.1274 76.9953 39.4632 78.4857 39.3402C79.061 39.2928 79.6388 39.3053 80.209 39.3769V38.2495C80.209 23.9659 67.0894 11.687 50.0006 11.687ZM80.7605 46.4333C80.5059 46.1592 80.3316 46.024 80.2128 45.9561C79.869 45.7593 79.4373 45.6575 78.9894 45.6945C78.7411 45.715 78.3973 45.8239 76.3007 46.798C75.3848 47.2234 74.8707 47.4682 74.4744 47.7614C74.1719 47.985 74.0744 48.1414 74.0123 48.3275C74.0073 48.3501 73.9919 48.4338 73.9803 48.6301C73.9603 48.9587 73.959 49.396 73.959 50.1682V68.8304C73.959 69.603 73.9603 70.0404 73.9803 70.3689C73.9919 70.5652 74.0073 70.649 74.0123 70.6715C74.0744 70.8576 74.1719 71.014 74.4744 71.2376C74.8707 71.5308 75.3848 71.7756 76.3007 72.2011C78.3973 73.1752 78.7411 73.284 78.9894 73.3044C79.4373 73.3413 79.869 73.2398 80.2128 73.043C80.3707 72.9525 80.5832 72.7714 82.004 71.0115C82.5694 70.3104 83.0974 69.6895 83.6064 69.0908L83.6393 69.0522C84.4009 68.1559 85.1222 67.3071 85.8678 66.3123C87.0349 64.7542 87.8482 63.3385 88.2174 61.9594C88.6507 60.3423 88.6507 58.6567 88.2174 57.0396C87.9915 56.1956 87.5415 55.2606 86.574 53.8598C85.5848 52.4271 84.1994 50.7075 82.2044 48.2357C81.9186 47.8821 81.7315 47.6361 81.5682 47.421C81.45 47.2653 81.3441 47.126 81.2221 46.974C81.0492 46.8122 80.8942 46.6308 80.7605 46.4333ZM19.7549 46.0858C19.1982 46.5106 18.6757 47.1481 17.7971 48.2366C15.8019 50.7084 14.4165 52.4279 13.4273 53.8606C12.4599 55.2614 12.0098 56.1964 11.7838 57.0405C11.3507 58.6576 11.3507 60.3431 11.7838 61.9603C12.1532 63.3394 12.9665 64.7551 14.1336 66.3131C14.8829 67.3129 15.6074 68.1652 16.3734 69.0663L16.3769 69.0705C16.8914 69.6755 17.4253 70.3033 17.9974 71.0123C18.8099 72.0187 19.3164 72.5984 19.8196 72.9635C20.1922 73.2338 20.5068 73.3469 21.0119 73.3052C21.2602 73.2848 21.604 73.176 23.7008 72.2019C25.2991 71.4594 25.4917 71.3345 25.5996 71.2389C25.7861 71.0735 25.8625 70.9367 25.9248 70.6796C26.0166 70.3 26.0423 69.7964 26.0423 68.8312V50.169C26.0423 49.2043 26.0166 48.7002 25.9248 48.3211C25.8625 48.064 25.7861 47.9272 25.5996 47.7618C25.4917 47.6658 25.2991 47.5413 23.7008 46.7988C21.604 45.8247 21.2602 45.7158 21.0119 45.6953C20.4954 45.6527 20.1659 45.7721 19.7549 46.0858Z" fill="#0F525B"/>
<ellipse cx="58.5" cy="63.7502" rx="4.5" ry="4.59" fill="white"/>
<ellipse cx="41.5" cy="63.7502" rx="4.5" ry="4.59" fill="white"/>
</svg>
