<svg width="25" height="16" viewBox="0 0 25 16" fill="none" xmlns="http://www.w3.org/2000/svg">
<path d="M23.7242 0.208008L1.15479 0.208008C0.588209 0.208008 0.128906 0.66731 0.128906 1.23389L0.128906 14.5703C0.128906 15.1369 0.588209 15.5962 1.15479 15.5962H23.7242C24.2907 15.5962 24.75 15.1369 24.75 14.5703V1.23389C24.75 0.66731 24.2907 0.208008 23.7242 0.208008Z" fill="#379C8C"/>
<path fill-rule="evenodd" clip-rule="evenodd" d="M2.18066 10.2785L2.97521 11.0633C5.00881 10.7808 4.88155 12.7896 4.88155 12.7896L5.64429 13.5429H19.2351L19.9979 12.7896C19.9979 12.7896 19.8706 10.7808 21.9042 11.0633L22.6983 10.2785V5.52381L21.9042 4.73942C19.8706 5.02185 19.9979 3.01312 19.9979 3.01312L19.2351 2.25977H5.64429L4.88155 3.01312C4.88155 3.01312 5.00881 5.02185 2.97521 4.73942L2.18066 5.52381V10.2785Z" fill="#73C3B9"/>
<path d="M12.4392 11.4927C14.4222 11.4927 16.0298 9.88513 16.0298 7.90211C16.0298 5.91908 14.4222 4.31152 12.4392 4.31152C10.4562 4.31152 8.84863 5.91908 8.84863 7.90211C8.84863 9.88513 10.4562 11.4927 12.4392 11.4927Z" fill="white"/>
<mask id="mask0_231_1821" style="mask-type:alpha" maskUnits="userSpaceOnUse" x="8" y="3" width="9" height="10">
<path fill-rule="evenodd" clip-rule="evenodd" d="M8.33594 3.79883L16.5427 3.79883V12.0057L8.33594 12.0057L8.33594 3.79883Z" fill="white"/>
</mask>
<g mask="url(#mask0_231_1821)">
<path fill-rule="evenodd" clip-rule="evenodd" d="M12.0975 7.4464H12.781C13.5985 7.4464 14.2632 8.10614 14.2632 8.91777C14.2632 9.6901 13.6582 10.3184 12.8954 10.3777V11.094H11.9835V10.3777C11.2203 10.3184 10.6157 9.69056 10.6157 8.91818H11.5276C11.5276 9.2264 11.7834 9.47718 12.0975 9.47718H12.781C13.0951 9.47718 13.3514 9.2264 13.3514 8.91818C13.3514 8.60954 13.0951 8.3583 12.781 8.3583H12.0975C11.2804 8.3583 10.6157 7.69856 10.6157 6.8874C10.6157 6.11414 11.2203 5.48584 11.9835 5.42654V4.71073L12.8954 4.71073V5.42654C13.6582 5.48584 14.2632 6.11368 14.2632 6.88606H13.3514C13.3514 6.57784 13.0951 6.32706 12.781 6.32706H12.0975C11.7834 6.32706 11.5276 6.57784 11.5276 6.88606C11.5276 7.19562 11.7834 7.4464 12.0975 7.4464ZM12.4395 3.79883C10.1729 3.79883 8.33594 5.63582 8.33594 7.90235C8.33594 10.1684 10.1729 12.0059 12.4395 12.0059C14.7055 12.0059 16.543 10.1684 16.543 7.90235C16.543 5.63582 14.7055 3.79883 12.4395 3.79883Z" fill="#379C8C"/>
</g>
</svg>
