<svg width="97" height="93" viewBox="0 0 97 93" fill="none" xmlns="http://www.w3.org/2000/svg">
<rect width="96.5541" height="93" rx="46.5" fill="#15525B"/>
<path d="M81.1525 26.6361V61.2748C81.1525 70.5349 74.7798 76.5806 65.1415 76.5806C60.5114 76.5806 56.4282 75.3285 53.4283 72.8755L55.0637 67.0496C58.0073 69.2828 61.2218 70.2078 64.9779 70.2078C70.2059 70.2078 73.7475 66.6663 73.7475 61.2186V54.4727C71.6215 57.028 68.4633 58.3925 64.8706 58.3925C63.4908 58.3925 62.203 58.1932 61.0276 57.815C56.5457 56.3892 53.7043 50.5224 53.7043 45.044V38.6917C53.7043 34.8793 51.3024 32.3751 47.6586 32.3751C44.0149 32.3751 41.664 34.8793 41.664 38.6917V55.9599H34.259V38.6917C34.259 34.8793 31.8622 32.3751 28.2133 32.3751C24.5645 32.3751 22.2239 34.8793 22.2239 38.6917V55.9599H14.8086V26.6054H21.9428L22.0552 30.0959C24.125 27.4231 27.227 26.0637 30.8248 26.0637C34.6934 26.0637 37.8005 27.6991 39.7016 30.474C41.8276 27.5866 45.2618 26.0637 49.1815 26.0637C50.822 26.0637 52.3398 26.3039 53.7043 26.7639C58.2679 28.2919 61.1093 32.2167 61.1093 37.5009V43.9043C61.1093 47.6656 63.6697 51.0998 67.4821 51.0998C71.2945 51.0998 73.7475 47.6656 73.7475 43.9043V26.6361H81.1525Z" fill="white"/>
</svg>
