<svg width="121" height="120" viewBox="0 0 121 120" fill="none" xmlns="http://www.w3.org/2000/svg">
<g clip-path="url(#clip0_782_10158)">
<g clip-path="url(#clip1_782_10158)">
<g clip-path="url(#clip2_782_10158)">
<path d="M119.949 61.0477V67.5739C117.728 68.5799 115.072 69.0548 112.468 69.0548C107.157 69.0548 103.526 65.0206 103.526 58.9745V27.125H110.895V36.4955H119.515V43.0778H110.895V57.3097C110.895 60.2154 112.519 62.115 114.853 62.115C116.589 62.115 118.269 61.8188 119.949 61.0477Z" fill="#0F525B"/>
<path d="M66.5133 36.429V74.1459C66.5133 84.2262 60.171 90.8085 50.5805 90.8085C45.9743 90.8085 41.9094 89.4451 38.9273 86.7744L40.5513 80.432C43.4775 82.8628 46.679 83.8687 50.4172 83.8687C55.6208 83.8687 59.1443 80.0133 59.1443 74.0795V66.7363C57.0302 69.5194 53.8847 71.0054 50.3098 71.0054C48.9378 71.0054 47.6544 70.7909 46.483 70.3773C42.0214 68.8249 39.1979 62.4417 39.1979 56.4773V49.563C39.1979 45.4165 36.8085 42.6845 33.1823 42.6845C29.5561 42.6845 27.218 45.4114 27.218 49.563V68.3602H19.849V49.563C19.849 45.4165 17.4642 42.6845 13.8333 42.6845C10.2025 42.6845 7.8737 45.4114 7.8737 49.563V68.3602H0.5V36.3933H7.59835L7.70569 40.1925C9.7638 37.2818 12.8533 35.806 16.4328 35.806C20.283 35.806 23.3725 37.5831 25.2672 40.6113C27.3813 37.4657 30.7975 35.806 34.699 35.806C36.3278 35.806 37.8399 36.0665 39.1979 36.5669C43.7388 38.2316 46.567 42.5058 46.567 48.2558V55.2262C46.567 59.3216 49.1151 63.0596 52.9093 63.0596C56.7035 63.0596 59.1443 59.3216 59.1443 55.2262V36.429H66.5133Z" fill="#0F525B"/>
<path d="M98.9852 48.3579V68.4623H91.6162V49.6652C91.6162 45.5136 88.9047 42.7867 84.7885 42.7867C80.6723 42.7867 77.9608 45.5136 77.9608 49.6652V68.4623H70.5918V36.4954H77.6901L77.7975 40.5296C80.0189 37.5065 83.4351 35.9031 87.3366 35.9031C94.3277 35.9031 98.9899 40.8871 98.9899 48.3579H98.9852Z" fill="#0F525B"/>
<path d="M70.7695 73.2728H71.7402V75.3665H73.453V73.2728H74.4237V78.839H73.453V76.4032H71.7402V78.839H70.7695V73.2728Z" fill="#625E5D"/>
<path d="M81.6194 76.0711C81.6194 77.7052 80.4527 78.9716 78.992 78.9716C77.5312 78.9716 76.3271 77.6695 76.3271 76.0507C76.3271 74.4319 77.5312 73.1349 78.978 73.1349C80.4247 73.1349 81.6194 74.3757 81.6194 76.0711ZM77.3025 76.0711C77.3025 77.2048 78.0819 77.9554 78.9826 77.9554C79.8833 77.9554 80.6394 77.1282 80.6394 76.066C80.6394 75.0038 79.9393 74.1511 78.9686 74.1511C78.0539 74.1511 77.3025 74.9272 77.3025 76.0762V76.0711Z" fill="#625E5D"/>
<path d="M83.8978 77.2354C84.1311 77.7154 84.4018 77.9656 84.7425 77.9656C85.0832 77.9656 85.3305 77.7307 85.3305 77.4448C85.3305 77.2456 85.2092 77.0107 85.0038 76.8269C83.9491 75.8566 83.3237 75.3307 83.3237 74.5392C83.3237 73.7476 83.9538 73.1349 84.7191 73.1349C85.3632 73.1349 85.7879 73.5127 86.1939 74.0285L85.4705 74.7281C85.2278 74.3553 84.9805 74.1562 84.7051 74.1562C84.4485 74.1562 84.2711 74.3196 84.2711 74.5443C84.2711 74.7689 84.4205 74.9017 84.5698 75.0396C85.5172 75.9537 86.2779 76.3877 86.2779 77.4039C86.2779 78.3333 85.6385 78.9869 84.7191 78.9869C83.9771 78.9869 83.4591 78.5937 83.0811 77.7767L83.8978 77.2405V77.2354Z" fill="#625E5D"/>
<path d="M88.1914 73.2728H89.3768C90.0348 73.2728 90.4969 73.3801 90.8142 73.7222C91.0616 73.9878 91.2249 74.4116 91.2249 74.8865C91.2249 75.4738 91.0056 75.918 90.5809 76.204C90.1468 76.49 89.6941 76.4849 89.1621 76.4849V78.8441H88.1914V73.2779V73.2728ZM89.1621 75.4533H89.6148C90.0535 75.4533 90.2728 75.2695 90.2728 74.8865C90.2728 74.5035 90.0302 74.3146 89.5728 74.3146H89.1621V75.4533Z" fill="#625E5D"/>
<path d="M93.0908 73.2728H94.0615V78.839H93.0908V73.2728Z" fill="#625E5D"/>
<path d="M95.6348 73.2728H98.4489V74.3095H97.5155V78.839H96.5448V74.3095H95.6394V73.2728H95.6348Z" fill="#625E5D"/>
<path d="M101.16 73.2728H102.135L104.1 78.839H103.092L102.695 77.69H100.618L100.198 78.839H99.1904L101.155 73.2728H101.16ZM101.655 74.7435L100.983 76.6483H102.327L101.655 74.7435Z" fill="#625E5D"/>
<path d="M105.846 73.2728H106.816V77.833H108.226V78.839H105.846V73.2728Z" fill="#625E5D"/>
<path d="M109.888 73.2728H110.858V78.839H109.888V73.2728Z" fill="#625E5D"/>
<path d="M112.431 73.2728H115.245V74.3095H114.311V78.839H113.341V74.3095H112.435V73.2728H112.431Z" fill="#625E5D"/>
<path d="M116.543 73.2728H117.584L118.536 75.2644L119.469 73.2728H120.505L119.016 76.4287V78.839H118.046V76.4287L116.543 73.2728Z" fill="#625E5D"/>
</g>
</g>
</g>
<defs>
<clipPath id="clip0_782_10158">
<rect width="120" height="120" fill="white" transform="translate(0.5)"/>
</clipPath>
<clipPath id="clip1_782_10158">
<rect width="120" height="86.4" fill="white" transform="translate(0.5 17)"/>
</clipPath>
<clipPath id="clip2_782_10158">
<rect width="120" height="63.75" fill="white" transform="translate(0.5 27.125)"/>
</clipPath>
</defs>
</svg>
