<svg width="90" height="43" viewBox="0 0 90 43" fill="none" xmlns="http://www.w3.org/2000/svg">
<g clip-path="url(#clip0_225_9172)">
<path d="M89.5866 22.8812V27.2832C87.9206 27.9617 85.929 28.282 83.9759 28.282C79.9927 28.282 77.2695 25.561 77.2695 21.4828V0H82.7963V6.32049H89.2611V10.7603H82.7963V20.3599C82.7963 22.3198 84.0144 23.6011 85.7645 23.6011C87.0665 23.6011 88.3266 23.4013 89.5866 22.8812Z" fill="white"/>
<path d="M49.51 6.32049V31.7609C49.51 38.5602 44.7532 43 37.5604 43C34.1057 43 31.0571 42.0803 28.8204 40.2789L30.0385 36.001C32.2331 37.6405 34.6342 38.319 37.4379 38.319C41.3406 38.319 43.9832 35.7185 43.9832 31.7161V26.7631C42.3976 28.6403 40.0385 29.6426 37.3574 29.6426C36.3283 29.6426 35.3658 29.4979 34.4872 29.2189C31.1411 28.1718 29.0234 23.8663 29.0234 19.8432V15.1795C29.0234 12.3826 27.2314 10.5399 24.5117 10.5399C21.7921 10.5399 20.0385 12.3792 20.0385 15.1795V27.8584H14.5117V15.1795C14.5117 12.3826 12.7231 10.5399 10 10.5399C7.27686 10.5399 5.53028 12.3792 5.53028 15.1795V27.8584H0V6.29638H5.32377L5.40427 8.85902C6.94785 6.8957 9.26496 5.90027 11.9496 5.90027C14.8372 5.90027 17.1544 7.09892 18.5754 9.14146C20.161 7.0197 22.7231 5.90027 25.6493 5.90027C26.8708 5.90027 28.0049 6.07593 29.0234 6.41349C32.4291 7.53636 34.5502 10.4193 34.5502 14.2977V18.9994C34.5502 21.7618 36.4613 24.2831 39.307 24.2831C42.1526 24.2831 43.9832 21.7618 43.9832 18.9994V6.32049H49.51Z" fill="white"/>
<path d="M73.8644 14.3218V27.8824H68.3376V15.2036C68.3376 12.4033 66.304 10.564 63.2169 10.564C60.1297 10.564 58.0961 12.4033 58.0961 15.2036V27.8824H52.5693V6.32045H57.8931L57.9736 9.04153C59.6397 7.00244 62.2018 5.9209 65.128 5.9209C70.3712 5.9209 73.8679 9.28264 73.8679 14.3218H73.8644Z" fill="white"/>
<path d="M52.7021 31.1271H53.4302V32.5393H54.7147V31.1271H55.4428V34.8815H54.7147V33.2385H53.4302V34.8815H52.7021V31.1271Z" fill="white"/>
<path d="M60.8403 33.0147C60.8403 34.1169 59.9653 34.9711 58.8697 34.9711C57.7741 34.9711 56.8711 34.0928 56.8711 33.0009C56.8711 31.9091 57.7741 31.0342 58.8592 31.0342C59.9443 31.0342 60.8403 31.8712 60.8403 33.0147ZM57.6026 33.0147C57.6026 33.7794 58.1872 34.2857 58.8627 34.2857C59.5382 34.2857 60.1053 33.7277 60.1053 33.0113C60.1053 32.2948 59.5802 31.7196 58.8522 31.7196C58.1662 31.7196 57.6026 32.2432 57.6026 33.0182V33.0147Z" fill="white"/>
<path d="M62.5481 33.8C62.7231 34.1238 62.9261 34.2926 63.1816 34.2926C63.4371 34.2926 63.6226 34.1341 63.6226 33.9413C63.6226 33.8069 63.5316 33.6485 63.3776 33.5245C62.5866 32.8701 62.1176 32.5153 62.1176 31.9814C62.1176 31.4475 62.5901 31.0342 63.1641 31.0342C63.6471 31.0342 63.9656 31.2891 64.2702 31.637L63.7276 32.1088C63.5456 31.8574 63.3601 31.7231 63.1536 31.7231C62.9611 31.7231 62.8281 31.8333 62.8281 31.9848C62.8281 32.1364 62.9401 32.2259 63.0521 32.3189C63.7626 32.9355 64.3332 33.2283 64.3332 33.9137C64.3332 34.5406 63.8536 34.9815 63.1641 34.9815C62.6076 34.9815 62.2191 34.7163 61.9355 34.1651L62.5481 33.8035V33.8Z" fill="white"/>
<path d="M65.7686 31.1271H66.6576C67.1511 31.1271 67.4976 31.1994 67.7357 31.4302C67.9212 31.6093 68.0437 31.8952 68.0437 32.2155C68.0437 32.6116 67.8792 32.9113 67.5606 33.1042C67.2351 33.2971 66.8956 33.2936 66.4966 33.2936V34.8849H65.7686V31.1305V31.1271ZM66.4966 32.5978H66.8361C67.1651 32.5978 67.3296 32.4738 67.3296 32.2155C67.3296 31.9572 67.1476 31.8297 66.8046 31.8297H66.4966V32.5978Z" fill="white"/>
<path d="M69.4434 31.1271H70.1714V34.8815H69.4434V31.1271Z" fill="white"/>
<path d="M71.3506 31.1271H73.4612V31.8263H72.7612V34.8815H72.0331V31.8263H71.3541V31.1271H71.3506Z" fill="white"/>
<path d="M75.4956 31.1271H76.2272L77.7007 34.8815H76.9447L76.6472 34.1065H75.0896L74.7746 34.8815H74.0186L75.4921 31.1271H75.4956ZM75.8666 32.1191L75.3626 33.4038H76.3707L75.8666 32.1191Z" fill="white"/>
<path d="M79.0098 31.1271H79.7378V34.2029H80.7949V34.8815H79.0098V31.1271Z" fill="white"/>
<path d="M82.041 31.1271H82.7691V34.8815H82.041V31.1271Z" fill="white"/>
<path d="M83.9482 31.1271H86.0588V31.8263H85.3588V34.8815H84.6308V31.8263H83.9517V31.1271H83.9482Z" fill="white"/>
<path d="M87.0322 31.1271H87.8128L88.5268 32.4704L89.2268 31.1271H90.0039L88.8873 33.2557V34.8815H88.1593V33.2557L87.0322 31.1271Z" fill="white"/>
</g>
<defs>
<clipPath id="clip0_225_9172">
<rect width="90" height="43" fill="white"/>
</clipPath>
</defs>
</svg>
