<svg width="275" height="176" viewBox="0 0 275 176" fill="none" xmlns="http://www.w3.org/2000/svg">
<g clip-path="url(#clip0_841_15645)">
<path d="M135.308 164.057C210.036 164.057 270.615 132.116 270.615 92.7142C270.615 53.3126 210.036 21.3713 135.308 21.3713C60.5792 21.3713 0 53.3126 0 92.7142C0 132.116 60.5792 164.057 135.308 164.057Z" fill="#EDEDED"/>
<path d="M267.546 105.449C268.88 106.486 268.736 107.957 267.12 108.887L178.675 160.128C176.896 161.153 174.014 161.153 172.241 160.128L3.21363 62.2036C1.57867 61.2545 1.44712 59.7647 2.83778 58.7339C1.2404 59.8716 8.10917e-05 62.1596 8.10917e-05 64.0765V68.3445C-0.0124474 70.3999 1.42833 72.9079 3.21363 73.9388L172.229 171.858C174.008 172.888 176.896 172.888 178.669 171.858L267.113 120.623C268.892 119.598 270.333 117.096 270.333 115.035V110.76C270.333 108.875 269.13 106.606 267.552 105.462L267.546 105.449Z" fill="#455A64"/>
<path d="M267.12 105.16L98.0918 7.24125C96.319 6.21039 93.4375 6.21668 91.6585 7.24125L3.21377 58.4824C1.43473 59.507 1.44099 61.179 3.21377 62.2035L172.242 160.122C174.014 161.153 176.896 161.147 178.675 160.122L267.12 108.881C268.899 107.857 268.893 106.185 267.12 105.16Z" fill="#37474F"/>
<path d="M2.8377 58.7278C1.24032 59.8655 0 62.1535 0 64.0708V68.3388C0 70.4005 1.42825 72.9023 3.21355 73.9331L172.229 171.852C173.118 172.367 174.29 172.625 175.455 172.625V160.896C174.296 160.896 173.125 160.638 172.241 160.123L3.21355 62.2038C1.57859 61.2546 1.44704 59.7649 2.8377 58.7341V58.7278Z" fill="#263238"/>
<path d="M46.4494 41.8126C47.3514 41.2909 47.3514 40.4423 46.4494 39.9206C45.5473 39.3989 44.0815 39.3989 43.1795 39.9206C42.2774 40.4423 42.2774 41.2909 43.1795 41.8126C44.0815 42.3343 45.5473 42.3343 46.4494 41.8126Z" fill="black"/>
<path d="M50.8786 38.9464L63.501 31.6362C64.2527 31.2024 64.2902 30.5173 63.5824 30.1024C62.8745 29.6939 61.6906 29.7127 60.9389 30.1527L48.3165 37.463C47.5648 37.8967 47.5272 38.5819 48.2351 38.9967C48.9429 39.4053 50.1269 39.3864 50.8786 38.9464Z" fill="black"/>
<path d="M103.817 15.0921C102.301 14.2121 100.716 14.7213 99.1937 15.6076L16.5309 63.4669C15.015 64.3469 15.0087 65.78 16.5309 66.66L166.553 153.591C168.082 154.478 170.55 154.471 172.072 153.591L254.728 105.726C256.257 104.846 256.251 103.413 254.728 102.533L103.81 15.0796L103.817 15.0921Z" fill="#3F757C"/>
<path opacity="0.96" d="M103.817 15.0921C102.301 14.2121 100.716 14.7213 99.1937 15.6076L16.5309 63.4669C15.015 64.3469 15.0087 65.78 16.5309 66.66L166.553 153.591C168.082 154.478 170.55 154.471 172.072 153.591L254.728 105.726C256.257 104.846 256.251 103.413 254.728 102.533L103.81 15.0796L103.817 15.0921Z" fill="white"/>
<g opacity="0.4">
<path d="M169.31 152.19L200.45 134.15L195.219 132.635C178.663 127.839 160.878 130.014 145.957 138.657L169.31 152.184V152.19Z" fill="#C8C8C8"/>
<path d="M205.824 131.038L252.348 104.085L221.209 86.0452L202.836 130.171C203.801 130.447 204.797 130.743 205.824 131.038Z" fill="#C8C8C8"/>
<path d="M216.023 83.0408L197.857 128.732C187.12 125.312 177.485 124.79 166.454 126.701L183.988 83.3613L209.477 79.2505L216.017 83.0408H216.023Z" fill="#C8C8C8"/>
<path d="M158.416 128.449L164.781 112.722L115.337 106.845L107.037 116.11L141.49 136.067C146.79 132.811 152.422 130.221 158.423 128.449H158.416Z" fill="#C8C8C8"/>
<path d="M190.17 68.0813L205.643 77.0259L185.215 80.3322L190.17 68.0813Z" fill="#C8C8C8"/>
<path d="M87.5744 70.2618C89.723 69.0172 93.2122 69.0172 95.3608 70.2618C97.5094 71.5064 97.5094 73.5241 95.3608 74.7687C93.2122 76.0132 89.723 76.0132 87.5744 74.7687C85.4257 73.5241 85.4257 71.5064 87.5744 70.2618Z" fill="#C8C8C8"/>
<path d="M176.32 83.6692L99.8402 74.5737C99.0321 76.4154 97.654 76.8366 94.4404 77.5406L115.776 102.023L166.661 108.077L176.32 83.6692Z" fill="#C8C8C8"/>
<path d="M139.975 60.5124L134.356 74.184L99.5892 70.048C98.9315 69.2937 97.9166 68.6589 96.6074 68.1183L101.375 55.9238L139.968 60.5124H139.975Z" fill="#C8C8C8"/>
<path d="M184.238 64.6299L178.268 79.4013L140.182 74.8756L146.164 60.0981L184.238 64.6299Z" fill="#C8C8C8"/>
<path d="M177.097 60.4877L114.01 23.9363L103.085 51.6814L177.097 60.4877Z" fill="#C8C8C8"/>
<path d="M86.8475 77.1071L110.144 103.84L101.844 113.105L56.8105 87.0134L84.6049 76.0574C85.3253 76.4974 86.0707 76.8557 86.8475 77.1071Z" fill="#C8C8C8"/>
<path d="M97.9542 51.0653L109.631 21.403L101.844 16.8899L52.2441 45.6282L97.9542 51.0653Z" fill="#C8C8C8"/>
<path d="M45.6041 49.4062L18.8057 65.0014L52.5386 84.5436L82.2999 72.7768C82.231 71.3499 82.9138 69.9671 85.1063 68.6848C86.8979 67.6476 89.1342 67.2579 91.6086 67.2014L96.2566 55.3148L45.6103 49.4062H45.6041Z" fill="#C8C8C8"/>
</g>
<path d="M105.684 50.0531V40.7502L120.01 42.4474V51.7565L105.684 50.0531Z" fill="white"/>
<path d="M120.01 42.4474L122.96 34.1628V44.4274L120.01 51.7566V42.4474Z" fill="white"/>
<path d="M122.96 34.1627L108.941 32.4656L105.684 40.7502L120.01 42.4473L122.96 34.1627Z" fill="white"/>
<path opacity="0.8" d="M105.684 50.0531V40.7502L120.01 42.4474V51.7565L105.684 50.0531Z" fill="#C6C6C6"/>
<path opacity="0.75" d="M120.01 42.4474L122.96 34.1628V44.4274L120.01 51.7566V42.4474Z" fill="#C6C6C6"/>
<path opacity="0.9" d="M122.96 34.1627L108.941 32.4656L105.684 40.7502L120.01 42.4473L122.96 34.1627Z" fill="#C6C6C6"/>
<path d="M115.074 69.9349V65.7612L129.401 67.4647V71.6384L115.074 69.9349Z" fill="white"/>
<path d="M129.4 67.4653L131.956 60.2742V65.4036L129.4 71.639V67.4653Z" fill="white"/>
<path d="M131.956 60.2741L117.937 58.5769L115.074 65.7612L129.401 67.4647L131.956 60.2741Z" fill="white"/>
<path opacity="0.8" d="M115.074 69.9349V65.7612L129.401 67.4647V71.6384L115.074 69.9349Z" fill="#C6C6C6"/>
<path opacity="0.75" d="M129.4 67.4653L131.956 60.2742V65.4036L129.4 71.639V67.4653Z" fill="#C6C6C6"/>
<path opacity="0.9" d="M131.956 60.2741L117.937 58.5769L115.074 65.7612L129.401 67.4647L131.956 60.2741Z" fill="#C6C6C6"/>
<path d="M142.668 124.815V115.506L156.994 117.21V126.513L142.668 124.815Z" fill="white"/>
<path d="M156.994 117.21L159.945 108.925V119.19L156.994 126.512V117.21Z" fill="white"/>
<path d="M159.945 108.925L145.925 107.228L142.668 115.506L156.994 117.21L159.945 108.925Z" fill="white"/>
<path opacity="0.8" d="M142.668 124.815V115.506L156.994 117.21V126.513L142.668 124.815Z" fill="#C6C6C6"/>
<path opacity="0.75" d="M156.994 117.21L159.945 108.925V119.19L156.994 126.512V117.21Z" fill="#C6C6C6"/>
<path opacity="0.9" d="M159.945 108.925L145.925 107.228L142.668 115.506L156.994 117.21L159.945 108.925Z" fill="#C6C6C6"/>
<path d="M142.424 54.2455V50.8135L149.672 51.6746V55.1066L142.424 54.2455Z" fill="white"/>
<path d="M149.672 51.6747L151.169 47.4822V51.3982L149.672 55.1067V51.6747Z" fill="white"/>
<path d="M151.169 47.4822L144.071 46.6211L142.424 50.8137L149.672 51.6748L151.169 47.4822Z" fill="white"/>
<path opacity="0.8" d="M142.424 54.2455V50.8135L149.672 51.6746V55.1066L142.424 54.2455Z" fill="#C6C6C6"/>
<path opacity="0.75" d="M149.672 51.6747L151.169 47.4822V51.3982L149.672 55.1067V51.6747Z" fill="#C6C6C6"/>
<path opacity="0.9" d="M151.169 47.4822L144.071 46.6211L142.424 50.8137L149.672 51.6748L151.169 47.4822Z" fill="#C6C6C6"/>
<path d="M89.5664 38.0727V33.0881L100.115 34.339V39.3236L89.5664 38.0727Z" fill="white"/>
<path d="M100.115 34.3388L102.289 28.2354V33.9302L100.115 39.3234V34.3388Z" fill="white"/>
<path d="M102.289 28.2353L91.9656 26.9907L89.5664 33.0879L100.115 34.3387L102.289 28.2353Z" fill="white"/>
<path opacity="0.8" d="M89.5664 38.0727V33.0881L100.115 34.339V39.3236L89.5664 38.0727Z" fill="#C6C6C6"/>
<path opacity="0.75" d="M100.115 34.3388L102.289 28.2354V33.9302L100.115 39.3234V34.3388Z" fill="#C6C6C6"/>
<path opacity="0.9" d="M102.289 28.2353L91.9656 26.9907L89.5664 33.0879L100.115 34.3387L102.289 28.2353Z" fill="#C6C6C6"/>
<path d="M143.683 73.6685V69.2183L153.092 70.3371V74.7811L143.683 73.6685Z" fill="white"/>
<path d="M153.092 70.3365L155.027 64.8931V69.9719L153.092 74.7805V70.3365Z" fill="white"/>
<path d="M155.027 64.8938L145.825 63.7812L143.683 69.2184L153.092 70.3373L155.027 64.8938Z" fill="white"/>
<path opacity="0.8" d="M143.683 73.6685V69.2183L153.092 70.3371V74.7811L143.683 73.6685Z" fill="#C6C6C6"/>
<path opacity="0.75" d="M153.092 70.3365L155.027 64.8931V69.9719L153.092 74.7805V70.3365Z" fill="#C6C6C6"/>
<path opacity="0.9" d="M155.027 64.8938L145.825 63.7812L143.683 69.2184L153.092 70.3373L155.027 64.8938Z" fill="#C6C6C6"/>
<path d="M101.011 68.3577V63.7817L110.689 64.932V69.508L101.011 68.3577Z" fill="white"/>
<path d="M110.689 64.9314L112.681 59.3374V64.5606L110.689 69.5074V64.9314Z" fill="white"/>
<path d="M112.681 59.3373L103.209 58.187L101.011 63.7811L110.689 64.9314L112.681 59.3373Z" fill="white"/>
<path opacity="0.8" d="M101.011 68.3577V63.7817L110.689 64.932V69.508L101.011 68.3577Z" fill="#C6C6C6"/>
<path opacity="0.75" d="M110.689 64.9314L112.681 59.3374V64.5606L110.689 69.5074V64.9314Z" fill="#C6C6C6"/>
<path opacity="0.9" d="M112.681 59.3373L103.209 58.187L101.011 63.7811L110.689 64.9314L112.681 59.3373Z" fill="#C6C6C6"/>
<path d="M155.854 75.0765V70.6262L165.257 71.7451V76.1891L155.854 75.0765Z" fill="white"/>
<path d="M165.257 71.7445L167.199 66.301V71.3799L165.257 76.1885V71.7445Z" fill="white"/>
<path d="M167.199 66.3018L157.997 65.1892L155.854 70.6264L165.257 71.7452L167.199 66.3018Z" fill="white"/>
<path opacity="0.8" d="M155.854 75.0765V70.6262L165.257 71.7451V76.1891L155.854 75.0765Z" fill="#C6C6C6"/>
<path opacity="0.75" d="M165.257 71.7445L167.199 66.301V71.3799L165.257 76.1885V71.7445Z" fill="#C6C6C6"/>
<path opacity="0.9" d="M167.199 66.3018L157.997 65.1892L155.854 70.6264L165.257 71.7452L167.199 66.3018Z" fill="#C6C6C6"/>
<path d="M168.025 76.4789V72.0349L177.428 73.1475V77.5978L168.025 76.4789Z" fill="white"/>
<path d="M177.429 73.1469L179.371 67.7097V72.7886L177.429 77.5971V73.1469Z" fill="white"/>
<path d="M179.37 67.7097L170.161 66.5972L168.025 72.0343L177.428 73.1469L179.37 67.7097Z" fill="white"/>
<path opacity="0.8" d="M168.025 76.4789V72.0349L177.428 73.1475V77.5978L168.025 76.4789Z" fill="#C6C6C6"/>
<path opacity="0.75" d="M177.429 73.1469L179.371 67.7097V72.7886L177.429 77.5971V73.1469Z" fill="#C6C6C6"/>
<path opacity="0.9" d="M179.37 67.7097L170.161 66.5972L168.025 72.0343L177.428 73.1469L179.37 67.7097Z" fill="#C6C6C6"/>
<path d="M55.457 61.6441V57.1938L64.8659 58.3127V62.7567L55.457 61.6441Z" fill="white"/>
<path d="M64.8662 58.3121L66.8019 52.8687V57.9475L64.8662 62.7561V58.3121Z" fill="white"/>
<path d="M66.8015 52.8689L57.5994 51.7563L55.457 57.1935L64.8659 58.3123L66.8015 52.8689Z" fill="white"/>
<path opacity="0.8" d="M55.457 61.6441V57.1938L64.8659 58.3127V62.7567L55.457 61.6441Z" fill="#C6C6C6"/>
<path opacity="0.75" d="M64.8662 58.3121L66.8019 52.8687V57.9475L64.8662 62.7561V58.3121Z" fill="#C6C6C6"/>
<path opacity="0.9" d="M66.8015 52.8689L57.5994 51.7563L55.457 57.1935L64.8659 58.3123L66.8015 52.8689Z" fill="#C6C6C6"/>
<path d="M67.6289 63.0457V58.6021L77.0315 59.7146V64.1646L67.6289 63.0457Z" fill="white"/>
<path d="M77.0312 59.714L78.9732 54.2769V59.3557L77.0312 64.1645V59.714Z" fill="white"/>
<path d="M78.9734 54.2771L69.7713 53.1646L67.6289 58.6017L77.0315 59.7143L78.9734 54.2771Z" fill="white"/>
<path opacity="0.8" d="M67.6289 63.0457V58.6021L77.0315 59.7146V64.1646L67.6289 63.0457Z" fill="#C6C6C6"/>
<path opacity="0.75" d="M77.0312 59.714L78.9732 54.2769V59.3557L77.0312 64.1645V59.714Z" fill="#C6C6C6"/>
<path opacity="0.9" d="M78.9734 54.2771L69.7713 53.1646L67.6289 58.6017L77.0315 59.7143L78.9734 54.2771Z" fill="#C6C6C6"/>
<path d="M79.7998 64.4544V60.0103L89.2024 61.1228V65.5733L79.7998 64.4544Z" fill="white"/>
<path d="M89.2031 61.1222L91.145 55.6851V60.7576L89.2031 65.5726V61.1222Z" fill="white"/>
<path d="M91.1443 55.6853L81.9359 54.5728L79.7998 60.0099L89.2024 61.1225L91.1443 55.6853Z" fill="white"/>
<path opacity="0.8" d="M79.7998 64.4544V60.0103L89.2024 61.1228V65.5733L79.7998 64.4544Z" fill="#C6C6C6"/>
<path opacity="0.75" d="M89.2031 61.1222L91.145 55.6851V60.7576L89.2031 65.5726V61.1222Z" fill="#C6C6C6"/>
<path opacity="0.9" d="M91.1443 55.6853L81.9359 54.5728L79.7998 60.0099L89.2024 61.1225L91.1443 55.6853Z" fill="#C6C6C6"/>
<path d="M201.245 47.3696V44.717L209.226 45.6599V48.3125L201.245 47.3696Z" fill="white"/>
<path opacity="0.8" d="M201.245 47.3696V44.717L209.226 45.6599V48.3125L201.245 47.3696Z" fill="#C6C6C6"/>
<path d="M209.226 45.6596L210.391 42.2339V45.4522L209.226 48.3122V45.6596Z" fill="white"/>
<path opacity="0.75" d="M209.226 45.6596L210.391 42.2339V45.4522L209.226 48.3122V45.6596Z" fill="#C6C6C6"/>
<path d="M210.391 42.2339L202.598 41.2974L201.245 44.7168L209.226 45.6596L210.391 42.2339Z" fill="white"/>
<path opacity="0.9" d="M210.391 42.2339L202.598 41.2974L201.245 44.7168L209.226 45.6596L210.391 42.2339Z" fill="#C6C6C6"/>
<path d="M144.71 103.357V98.9062L154.119 100.025V104.469L144.71 103.357Z" fill="white"/>
<path d="M154.119 100.025L156.055 94.5818V99.6606L154.119 104.469V100.025Z" fill="white"/>
<path d="M156.054 94.5811L146.852 93.4685L144.71 98.9057L154.119 100.025L156.054 94.5811Z" fill="white"/>
<path opacity="0.8" d="M144.71 103.357V98.9062L154.119 100.025V104.469L144.71 103.357Z" fill="#C6C6C6"/>
<path opacity="0.75" d="M154.119 100.025L156.055 94.5818V99.6606L154.119 104.469V100.025Z" fill="#C6C6C6"/>
<path opacity="0.9" d="M156.054 94.5811L146.852 93.4685L144.71 98.9057L154.119 100.025L156.054 94.5811Z" fill="#C6C6C6"/>
<path d="M156.449 104.758V100.307L165.858 101.426V105.877L156.449 104.758Z" fill="white"/>
<path d="M165.858 101.426L167.794 95.9822V101.061L165.858 105.876V101.426Z" fill="white"/>
<path d="M167.794 95.9829L158.592 94.8704L156.449 100.308L165.858 101.426L167.794 95.9829Z" fill="white"/>
<path opacity="0.8" d="M156.449 104.758V100.307L165.858 101.426V105.877L156.449 104.758Z" fill="#C6C6C6"/>
<path opacity="0.75" d="M165.858 101.426L167.794 95.9822V101.061L165.858 105.876V101.426Z" fill="#C6C6C6"/>
<path opacity="0.9" d="M167.794 95.9829L158.592 94.8704L156.449 100.308L165.858 101.426L167.794 95.9829Z" fill="#C6C6C6"/>
<path d="M114.992 118.26V113.81L124.401 114.929V119.379L114.992 118.26Z" fill="white"/>
<path d="M124.401 114.928L126.337 109.485V114.563L124.401 119.378V114.928Z" fill="white"/>
<path d="M126.337 109.485L117.135 108.372L114.992 113.809L124.401 114.928L126.337 109.485Z" fill="white"/>
<path opacity="0.8" d="M114.992 118.26V113.81L124.401 114.929V119.379L114.992 118.26Z" fill="#C6C6C6"/>
<path opacity="0.75" d="M124.401 114.928L126.337 109.485V114.563L124.401 119.378V114.928Z" fill="#C6C6C6"/>
<path opacity="0.9" d="M126.337 109.485L117.135 108.372L114.992 113.809L124.401 114.928L126.337 109.485Z" fill="#C6C6C6"/>
<path d="M126.731 119.661V115.211L136.14 116.33V120.78L126.731 119.661Z" fill="white"/>
<path d="M136.141 116.33L138.083 110.893V115.965L136.141 120.78V116.33Z" fill="white"/>
<path d="M138.082 110.893L128.874 109.774L126.731 115.211L136.14 116.33L138.082 110.893Z" fill="white"/>
<path opacity="0.8" d="M126.731 119.661V115.211L136.14 116.33V120.78L126.731 119.661Z" fill="#C6C6C6"/>
<path opacity="0.75" d="M136.141 116.33L138.083 110.893V115.965L136.141 120.78V116.33Z" fill="#C6C6C6"/>
<path opacity="0.9" d="M138.082 110.893L128.874 109.774L126.731 115.211L136.14 116.33L138.082 110.893Z" fill="#C6C6C6"/>
<path d="M198.112 97.1393V92.6953L207.521 93.8079V98.2582L198.112 97.1393Z" fill="white"/>
<path d="M207.521 93.808L209.463 88.3708V93.4434L207.521 98.2583V93.808Z" fill="white"/>
<path d="M209.463 88.3708L200.255 87.252L198.112 92.6954L207.521 93.808L209.463 88.3708Z" fill="white"/>
<path opacity="0.8" d="M198.112 97.1393V92.6953L207.521 93.8079V98.2582L198.112 97.1393Z" fill="#C6C6C6"/>
<path opacity="0.75" d="M207.521 93.808L209.463 88.3708V93.4434L207.521 98.2583V93.808Z" fill="#C6C6C6"/>
<path opacity="0.9" d="M209.463 88.3708L200.255 87.252L198.112 92.6954L207.521 93.808L209.463 88.3708Z" fill="#C6C6C6"/>
<path d="M194.423 106.305V101.861L203.832 102.973V107.423L194.423 106.305Z" fill="white"/>
<path d="M203.832 102.973L205.774 97.5354V102.614L203.832 107.423V102.973Z" fill="white"/>
<path d="M205.774 97.5354L196.565 96.4229L194.423 101.86L203.832 102.973L205.774 97.5354Z" fill="white"/>
<path opacity="0.8" d="M194.423 106.305V101.861L203.832 102.973V107.423L194.423 106.305Z" fill="#C6C6C6"/>
<path opacity="0.75" d="M203.832 102.973L205.774 97.5354V102.614L203.832 107.423V102.973Z" fill="#C6C6C6"/>
<path opacity="0.9" d="M205.774 97.5354L196.565 96.4229L194.423 101.86L203.832 102.973L205.774 97.5354Z" fill="#C6C6C6"/>
<path d="M190.733 115.475V111.025L200.142 112.144V116.588L190.733 115.475Z" fill="white"/>
<path d="M200.143 112.143L202.084 106.7V111.779L200.143 116.587V112.143Z" fill="white"/>
<path d="M202.084 106.7L192.876 105.587L190.733 111.025L200.142 112.143L202.084 106.7Z" fill="white"/>
<path opacity="0.8" d="M190.733 115.475V111.025L200.142 112.144V116.588L190.733 115.475Z" fill="#C6C6C6"/>
<path opacity="0.75" d="M200.143 112.143L202.084 106.7V111.779L200.143 116.587V112.143Z" fill="#C6C6C6"/>
<path opacity="0.9" d="M202.084 106.7L192.876 105.587L190.733 111.025L200.142 112.143L202.084 106.7Z" fill="#C6C6C6"/>
<path d="M187.044 124.639V120.189L196.453 121.308V125.758L187.044 124.639Z" fill="white"/>
<path d="M196.453 121.307L198.395 115.864V120.943L196.453 125.758V121.307Z" fill="white"/>
<path d="M198.395 115.865L189.186 114.752L187.044 120.189L196.453 121.308L198.395 115.865Z" fill="white"/>
<path opacity="0.8" d="M187.044 124.639V120.189L196.453 121.308V125.758L187.044 124.639Z" fill="#C6C6C6"/>
<path opacity="0.75" d="M196.453 121.307L198.395 115.864V120.943L196.453 125.758V121.307Z" fill="#C6C6C6"/>
<path opacity="0.9" d="M198.395 115.865L189.186 114.752L187.044 120.189L196.453 121.308L198.395 115.865Z" fill="#C6C6C6"/>
<path d="M182.146 95.2789V90.8286L191.554 91.9475V96.3915L182.146 95.2789Z" fill="white"/>
<path d="M191.554 91.9468L193.496 86.5034V91.5823L191.554 96.3908V91.9468Z" fill="white"/>
<path d="M193.496 86.5039L184.288 85.3914L182.146 90.8285L191.554 91.9474L193.496 86.5039Z" fill="white"/>
<path opacity="0.8" d="M182.146 95.2789V90.8286L191.554 91.9475V96.3915L182.146 95.2789Z" fill="#C6C6C6"/>
<path opacity="0.75" d="M191.554 91.9468L193.496 86.5034V91.5823L191.554 96.3908V91.9468Z" fill="#C6C6C6"/>
<path opacity="0.9" d="M193.496 86.5039L184.288 85.3914L182.146 90.8285L191.554 91.9474L193.496 86.5039Z" fill="#C6C6C6"/>
<path d="M178.456 104.443V99.9932L187.865 101.112V105.562L178.456 104.443Z" fill="white"/>
<path d="M187.864 101.111L189.806 95.668V100.747L187.864 105.562V101.111Z" fill="white"/>
<path d="M189.807 95.6685L180.598 94.5559L178.456 99.9931L187.865 101.112L189.807 95.6685Z" fill="white"/>
<path opacity="0.8" d="M178.456 104.443V99.9932L187.865 101.112V105.562L178.456 104.443Z" fill="#C6C6C6"/>
<path opacity="0.75" d="M187.864 101.111L189.806 95.668V100.747L187.864 105.562V101.111Z" fill="#C6C6C6"/>
<path opacity="0.9" d="M189.807 95.6685L180.598 94.5559L178.456 99.9931L187.865 101.112L189.807 95.6685Z" fill="#C6C6C6"/>
<path d="M174.766 113.608V109.158L184.175 110.277V114.727L174.766 113.608Z" fill="white"/>
<path d="M184.175 110.276L186.117 104.833V109.911L184.175 114.726V110.276Z" fill="white"/>
<path d="M186.116 104.833L176.908 103.72L174.766 109.158L184.175 110.276L186.116 104.833Z" fill="white"/>
<path opacity="0.8" d="M174.766 113.608V109.158L184.175 110.277V114.727L174.766 113.608Z" fill="#C6C6C6"/>
<path opacity="0.75" d="M184.175 110.276L186.117 104.833V109.911L184.175 114.726V110.276Z" fill="#C6C6C6"/>
<path opacity="0.9" d="M186.116 104.833L176.908 103.72L174.766 109.158L184.175 110.276L186.116 104.833Z" fill="#C6C6C6"/>
<path d="M171.076 122.773V118.329L180.485 119.441V123.891L171.076 122.773Z" fill="white"/>
<path d="M180.485 119.441L182.421 114.004V119.083L180.485 123.891V119.441Z" fill="white"/>
<path d="M182.421 114.004L173.219 112.885L171.076 118.329L180.485 119.441L182.421 114.004Z" fill="white"/>
<path opacity="0.8" d="M171.076 122.773V118.329L180.485 119.441V123.891L171.076 122.773Z" fill="#C6C6C6"/>
<path opacity="0.75" d="M180.485 119.441L182.421 114.004V119.083L180.485 123.891V119.441Z" fill="#C6C6C6"/>
<path opacity="0.9" d="M182.421 114.004L173.219 112.885L171.076 118.329L180.485 119.441L182.421 114.004Z" fill="#C6C6C6"/>
<path d="M213.704 112.043V108.542L221.108 109.422V112.923L213.704 112.043Z" fill="white"/>
<path d="M221.108 109.422L222.631 105.141V109.139L221.108 112.923V109.422Z" fill="white"/>
<path d="M222.631 105.141L215.389 104.267L213.704 108.542L221.108 109.422L222.631 105.141Z" fill="white"/>
<path opacity="0.8" d="M213.704 112.043V108.542L221.108 109.422V112.923L213.704 112.043Z" fill="#C6C6C6"/>
<path opacity="0.75" d="M221.108 109.422L222.631 105.141V109.139L221.108 112.923V109.422Z" fill="#C6C6C6"/>
<path opacity="0.9" d="M222.631 105.141L215.389 104.267L213.704 108.542L221.108 109.422L222.631 105.141Z" fill="#C6C6C6"/>
<path d="M210.009 122.344V118.843L217.407 119.723V123.224L210.009 122.344Z" fill="white"/>
<path d="M217.406 119.723L218.928 115.443V119.441L217.406 123.225V119.723Z" fill="white"/>
<path d="M218.929 115.444L211.694 114.57L210.009 118.844L217.407 119.724L218.929 115.444Z" fill="white"/>
<path opacity="0.8" d="M210.009 122.344V118.843L217.407 119.723V123.224L210.009 122.344Z" fill="#C6C6C6"/>
<path opacity="0.75" d="M217.406 119.723L218.928 115.443V119.441L217.406 123.225V119.723Z" fill="#C6C6C6"/>
<path opacity="0.9" d="M218.929 115.444L211.694 114.57L210.009 118.844L217.407 119.724L218.929 115.444Z" fill="#C6C6C6"/>
<path d="M130.547 101.514V84.8445L142.205 86.2211V102.891L130.547 101.514Z" fill="white"/>
<path opacity="0.8" d="M130.547 101.514V84.8445L142.205 86.2211V102.891L130.547 101.514Z" fill="#C6C6C6"/>
<path d="M142.204 86.2212L143.72 82.1606V99.6538L142.204 102.891V86.2212Z" fill="white"/>
<path opacity="0.75" d="M142.204 86.2212L143.72 82.1606V99.6538L142.204 102.891V86.2212Z" fill="#C6C6C6"/>
<path d="M143.721 82.1606L132.326 80.7903L130.547 84.8446L142.205 86.2211L143.721 82.1606Z" fill="white"/>
<path opacity="0.9" d="M143.721 82.1606L132.326 80.7903L130.547 84.8446L142.205 86.2211L143.721 82.1606Z" fill="#C6C6C6"/>
<path d="M71.5879 45.4833V25.7776L78.3032 26.5256V46.2376L71.5879 45.4833Z" fill="white"/>
<path opacity="0.8" d="M71.5879 45.4833V25.7776L78.3032 26.5256V46.2376L71.5879 45.4833Z" fill="#C6C6C6"/>
<path d="M78.3027 26.5254L79.8187 22.4648V43.0003L78.3027 46.2374V26.5254Z" fill="white"/>
<path opacity="0.75" d="M78.3027 26.5254L79.8187 22.4648V43.0003L78.3027 46.2374V26.5254Z" fill="#C6C6C6"/>
<path d="M79.8191 22.465L73.3669 21.717L71.5879 25.7776L78.3032 26.5256L79.8191 22.465Z" fill="white"/>
<path opacity="0.9" d="M79.8191 22.465L73.3669 21.717L71.5879 25.7776L78.3032 26.5256L79.8191 22.465Z" fill="#C6C6C6"/>
<path d="M79.0605 44.7985V27.4185L82.6186 27.8019V45.1819L79.0605 44.7985Z" fill="white"/>
<path opacity="0.8" d="M79.0605 44.7985V27.4185L82.6186 27.8019V45.1819L79.0605 44.7985Z" fill="#C6C6C6"/>
<path d="M82.6191 27.8016L83.1704 26.0227V44.113L82.6191 45.1816V27.8016Z" fill="white"/>
<path opacity="0.75" d="M82.6191 27.8016L83.1704 26.0227V44.113L82.6191 45.1816V27.8016Z" fill="#C6C6C6"/>
<path d="M83.1699 26.0228L79.8436 25.6394L79.0605 27.4183L82.6186 27.8017L83.1699 26.0228Z" fill="white"/>
<path opacity="0.9" d="M83.1699 26.0228L79.8436 25.6394L79.0605 27.4183L82.6186 27.8017L83.1699 26.0228Z" fill="#C6C6C6"/>
<path d="M116.603 99.8424V83.179L128.267 84.5555V101.219L116.603 99.8424Z" fill="white"/>
<path opacity="0.8" d="M116.603 99.8424V83.179L128.267 84.5555V101.219L116.603 99.8424Z" fill="#C6C6C6"/>
<path d="M128.267 84.5562L129.776 80.4956V97.9888L128.267 101.22V84.5562Z" fill="white"/>
<path opacity="0.75" d="M128.267 84.5562L129.776 80.4956V97.9888L128.267 101.22V84.5562Z" fill="#C6C6C6"/>
<path d="M129.776 80.4947L118.382 79.1182L116.603 83.1787L128.267 84.5553L129.776 80.4947Z" fill="white"/>
<path opacity="0.9" d="M129.776 80.4947L118.382 79.1182L116.603 83.1787L128.267 84.5553L129.776 80.4947Z" fill="#C6C6C6"/>
<path d="M85.958 47.3627V42.3782L96.507 43.629V48.6199L85.958 47.3627Z" fill="white"/>
<path d="M96.5068 43.6293L98.6805 37.5259V43.2207L96.5068 48.6202V43.6293Z" fill="white"/>
<path d="M98.6807 37.5258L88.3635 36.2812L85.958 42.3784L96.507 43.6293L98.6807 37.5258Z" fill="white"/>
<path opacity="0.8" d="M85.958 47.3627V42.3782L96.507 43.629V48.6199L85.958 47.3627Z" fill="#C6C6C6"/>
<path opacity="0.75" d="M96.5068 43.6293L98.6805 37.5259V43.2207L96.5068 48.6202V43.6293Z" fill="#C6C6C6"/>
<path opacity="0.9" d="M98.6807 37.5258L88.3635 36.2812L85.958 42.3784L96.507 43.6293L98.6807 37.5258Z" fill="#C6C6C6"/>
<path d="M76.7622 83.1222L69.2075 87.4971L63.1562 84.0211L71.0993 79.4199L76.7622 83.1222Z" fill="white"/>
<path opacity="0.9" d="M76.7622 83.1222L69.2075 87.4971L63.1562 84.0211L71.0993 79.4199L76.7622 83.1222Z" fill="#C6C6C6"/>
<path d="M63.1562 87.623V84.0212L69.2075 87.4972V91.1304L63.1562 87.623Z" fill="white"/>
<path opacity="0.8" d="M63.1562 87.623V84.0212L69.2075 87.4972V91.1304L63.1562 87.623Z" fill="#C6C6C6"/>
<path d="M76.7617 83.1216V86.7484L69.207 91.1296V87.4964L76.7617 83.1216Z" fill="white"/>
<path opacity="0.75" d="M76.7617 83.1216V86.7484L69.207 91.1296V87.4964L76.7617 83.1216Z" fill="#C6C6C6"/>
<path d="M85.2061 88.1195L77.6514 92.4944L71.6064 89.0184L79.5432 84.4172L85.2061 88.1195Z" fill="white"/>
<path opacity="0.9" d="M85.2061 88.1195L77.6514 92.4944L71.6064 89.0184L79.5432 84.4172L85.2061 88.1195Z" fill="#C6C6C6"/>
<path d="M71.6064 92.62V89.0183L77.6514 92.4943V96.1275L71.6064 92.62Z" fill="white"/>
<path opacity="0.8" d="M71.6064 92.62V89.0183L77.6514 92.4943V96.1275L71.6064 92.62Z" fill="#C6C6C6"/>
<path d="M85.206 88.1189V91.752L77.6514 96.1269V92.4938L85.206 88.1189Z" fill="white"/>
<path opacity="0.75" d="M85.206 88.1189V91.752L77.6514 96.1269V92.4938L85.206 88.1189Z" fill="#C6C6C6"/>
<path d="M93.8257 93.0727L86.271 97.4475L80.2197 93.9715L88.1628 89.3704L93.8257 93.0727Z" fill="white"/>
<path opacity="0.9" d="M93.8257 93.0727L86.271 97.4475L80.2197 93.9715L88.1628 89.3704L93.8257 93.0727Z" fill="#C6C6C6"/>
<path d="M80.2197 97.5731V93.9714L86.271 97.4474V101.074L80.2197 97.5731Z" fill="white"/>
<path opacity="0.8" d="M80.2197 97.5731V93.9714L86.271 97.4474V101.074L80.2197 97.5731Z" fill="#C6C6C6"/>
<path d="M93.8262 93.072V96.6989L86.2715 101.074V97.4469L93.8262 93.072Z" fill="white"/>
<path opacity="0.75" d="M93.8262 93.072V96.6989L86.2715 101.074V97.4469L93.8262 93.072Z" fill="#C6C6C6"/>
<path d="M106.053 95.3104L98.4985 99.6852L92.4473 96.203L100.39 91.6018L106.053 95.3104Z" fill="white"/>
<path opacity="0.9" d="M106.053 95.3104L98.4985 99.6852L92.4473 96.203L100.39 91.6018L106.053 95.3104Z" fill="#C6C6C6"/>
<path d="M92.4473 104.884V96.2034L98.4985 99.6857V108.385L92.4473 104.884Z" fill="white"/>
<path opacity="0.8" d="M92.4473 104.884V96.2034L98.4985 99.6857V108.385L92.4473 104.884Z" fill="#C6C6C6"/>
<path d="M106.054 95.311V104.01L98.499 108.385V99.6859L106.054 95.311Z" fill="white"/>
<path opacity="0.75" d="M106.054 95.311V104.01L98.499 108.385V99.6859L106.054 95.311Z" fill="#C6C6C6"/>
<path d="M60.8822 74.9005L52.6948 77.9742L46.6436 74.4919L55.2256 71.1919L60.8822 74.9005Z" fill="white"/>
<path opacity="0.9" d="M60.8822 74.9005L52.6948 77.9742L46.6436 74.4919L55.2256 71.1919L60.8822 74.9005Z" fill="#C6C6C6"/>
<path d="M46.6436 78.0999V74.4919L52.6948 77.9742V81.6011L46.6436 78.0999Z" fill="white"/>
<path opacity="0.8" d="M46.6436 78.0999V74.4919L52.6948 77.9742V81.6011L46.6436 78.0999Z" fill="#C6C6C6"/>
<path d="M60.8827 74.9006V78.5275L52.6953 81.6012V77.9743L60.8827 74.9006Z" fill="white"/>
<path opacity="0.75" d="M60.8827 74.9006V78.5275L52.6953 81.6012V77.9743L60.8827 74.9006Z" fill="#C6C6C6"/>
<path d="M74.0124 69.872L65.8188 72.9457L59.7676 69.4697L68.3495 66.1697L74.0124 69.872Z" fill="white"/>
<path opacity="0.9" d="M74.0124 69.872L65.8188 72.9457L59.7676 69.4697L68.3495 66.1697L74.0124 69.872Z" fill="#C6C6C6"/>
<path d="M59.7676 73.0714V69.4697L65.8188 72.9457V76.5789L59.7676 73.0714Z" fill="white"/>
<path opacity="0.8" d="M59.7676 73.0714V69.4697L65.8188 72.9457V76.5789L59.7676 73.0714Z" fill="#C6C6C6"/>
<path d="M74.012 69.8713V73.4982L65.8184 76.5782V72.9451L74.012 69.8713Z" fill="white"/>
<path opacity="0.75" d="M74.012 69.8713V73.4982L65.8184 76.5782V72.9451L74.012 69.8713Z" fill="#C6C6C6"/>
<path d="M123.713 51.8319V46.5708L139.029 48.3811V53.6422L123.713 51.8319Z" fill="white"/>
<path opacity="0.75" d="M123.713 51.8319V46.5708L139.029 48.3811V53.6422L123.713 51.8319Z" fill="#C6C6C6"/>
<path d="M139.028 48.3812L142.261 39.2983V45.6092L139.028 53.6423V48.3812Z" fill="white"/>
<path opacity="0.65" d="M139.028 48.3812L142.261 39.2983V45.6092L139.028 53.6423V48.3812Z" fill="#C6C6C6"/>
<path d="M142.261 39.2981L127.29 37.4941L123.713 46.5707L139.029 48.381L142.261 39.2981Z" fill="white"/>
<path opacity="0.9" d="M142.261 39.2981L127.29 37.4941L123.713 46.5707L139.029 48.381L142.261 39.2981Z" fill="#C6C6C6"/>
<path d="M125.68 45.2635V19.6304L137.676 21.0509V46.6841L125.68 45.2635Z" fill="white"/>
<path opacity="0.75" d="M125.68 45.2635V19.6304L137.676 21.0509V46.6841L125.68 45.2635Z" fill="#C6C6C6"/>
<path d="M137.676 21.0508L140.294 13.6965V40.1782L137.676 46.684V21.0508Z" fill="white"/>
<path opacity="0.65" d="M137.676 21.0508L140.294 13.6965V40.1782L137.676 46.684V21.0508Z" fill="#C6C6C6"/>
<path d="M140.294 13.6965L128.574 12.2822L125.68 19.6302L137.676 21.0508L140.294 13.6965Z" fill="white"/>
<path opacity="0.9" d="M140.294 13.6965L128.574 12.2822L125.68 19.6302L137.676 21.0508L140.294 13.6965Z" fill="#C6C6C6"/>
<path d="M129.419 17.9836V4.00415L135.959 4.77729V18.7567L129.419 17.9836Z" fill="white"/>
<path opacity="0.75" d="M129.419 17.9836V4.00415L135.959 4.77729V18.7567L129.419 17.9836Z" fill="#C6C6C6"/>
<path d="M135.959 4.77738L137.394 0.76709V15.2117L135.959 18.7568V4.77738Z" fill="white"/>
<path opacity="0.65" d="M135.959 4.77738L137.394 0.76709V15.2117L135.959 18.7568V4.77738Z" fill="#C6C6C6"/>
<path d="M137.393 0.766857L130.998 0L129.419 4.00401L135.959 4.77715L137.393 0.766857Z" fill="white"/>
<path opacity="0.9" d="M137.393 0.766857L130.998 0L129.419 4.00401L135.959 4.77715L137.393 0.766857Z" fill="#C6C6C6"/>
<path d="M198.765 88.6977V48.3123L210.761 49.7265V90.1183L198.765 88.6977Z" fill="white"/>
<path opacity="0.75" d="M198.765 88.6977V48.3123L210.761 49.7265V90.1183L198.765 88.6977Z" fill="#C6C6C6"/>
<path d="M210.76 49.7263L212.514 44.572V85.8125L210.76 90.1182V49.7263Z" fill="white"/>
<path opacity="0.65" d="M210.76 49.7263L212.514 44.572V85.8125L210.76 90.1182V49.7263Z" fill="#C6C6C6"/>
<path d="M212.515 44.5718L200.794 43.1638L198.765 48.3118L210.761 49.7261L212.515 44.5718Z" fill="white"/>
<path opacity="0.9" d="M212.515 44.5718L200.794 43.1638L198.765 48.3118L210.761 49.7261L212.515 44.5718Z" fill="#C6C6C6"/>
<path d="M218.171 101.59V64.1833L228.626 65.3525V102.759L218.171 101.59Z" fill="white"/>
<path opacity="0.75" d="M218.171 101.59V64.1833L228.626 65.3525V102.759L218.171 101.59Z" fill="#C6C6C6"/>
<path d="M228.626 65.3526L230.981 59.0354V97.724L228.626 102.759V65.3526Z" fill="white"/>
<path opacity="0.65" d="M228.626 65.3526L230.981 59.0354V97.724L228.626 102.759V65.3526Z" fill="#C6C6C6"/>
<path d="M230.981 59.0357L220.94 57.8728L218.171 64.1835L228.626 65.3526L230.981 59.0357Z" fill="white"/>
<path opacity="0.9" d="M230.981 59.0357L220.94 57.8728L218.171 64.1835L228.626 65.3526L230.981 59.0357Z" fill="#C6C6C6"/>
<path d="M229.804 100.522V66.7424L235.341 67.3396V101.119L229.804 100.522Z" fill="white"/>
<path opacity="0.75" d="M229.804 100.522V66.7424L235.341 67.3396V101.119L229.804 100.522Z" fill="#C6C6C6"/>
<path d="M235.341 67.3394L236.199 64.5674V99.4531L235.341 101.119V67.3394Z" fill="white"/>
<path opacity="0.65" d="M235.341 67.3394L236.199 64.5674V99.4531L235.341 101.119V67.3394Z" fill="#C6C6C6"/>
<path d="M236.199 64.5676L231.019 63.9705L229.804 66.7425L235.341 67.3396L236.199 64.5676Z" fill="white"/>
<path opacity="0.9" d="M236.199 64.5676L231.019 63.9705L229.804 66.7425L235.341 67.3396L236.199 64.5676Z" fill="#C6C6C6"/>
<path d="M31.3213 68.2439V30.8374L41.7763 32.0065V69.4131L31.3213 68.2439Z" fill="white"/>
<path opacity="0.75" d="M31.3213 68.2439V30.8374L41.7763 32.0065V69.4131L31.3213 68.2439Z" fill="#C6C6C6"/>
<path d="M41.7764 32.0066L44.1317 25.6895V64.3783L41.7764 69.4131V32.0066Z" fill="white"/>
<path opacity="0.65" d="M41.7764 32.0066L44.1317 25.6895V64.3783L41.7764 69.4131V32.0066Z" fill="#C6C6C6"/>
<path d="M44.1317 25.6895L34.0901 24.5266L31.3213 30.8375L41.7763 32.0066L44.1317 25.6895Z" fill="white"/>
<path opacity="0.9" d="M44.1317 25.6895L34.0901 24.5266L31.3213 30.8375L41.7763 32.0066L44.1317 25.6895Z" fill="#C6C6C6"/>
<path d="M42.9541 67.1755V33.396L48.4917 33.9931V67.7726L42.9541 67.1755Z" fill="white"/>
<path opacity="0.75" d="M42.9541 67.1755V33.396L48.4917 33.9931V67.7726L42.9541 67.1755Z" fill="#C6C6C6"/>
<path d="M48.4912 33.9932L49.3494 31.2212V66.107L48.4912 67.7727V33.9932Z" fill="white"/>
<path opacity="0.65" d="M48.4912 33.9932L49.3494 31.2212V66.107L48.4912 67.7727V33.9932Z" fill="#C6C6C6"/>
<path d="M49.3499 31.2209L44.1694 30.6238L42.9541 33.3958L48.4917 33.9929L49.3499 31.2209Z" fill="white"/>
<path opacity="0.9" d="M49.3499 31.2209L44.1694 30.6238L42.9541 33.3958L48.4917 33.9929L49.3499 31.2209Z" fill="#C6C6C6"/>
<path d="M203.043 132.968C202.993 132.968 202.942 132.955 202.899 132.93C202.817 132.886 194.392 128.643 181.437 128.053C168.495 127.462 162.306 129.932 162.244 129.957C162.125 130.007 161.987 129.976 161.899 129.888C161.805 129.8 161.78 129.662 161.83 129.542L180.88 82.3052L136.341 77.0943C136.241 77.0817 136.153 77.0252 136.103 76.9372C136.053 76.8492 136.047 76.7486 136.084 76.6543L143.15 59.1233L68.5181 49.9963C68.3427 49.9774 68.2174 49.814 68.2362 49.638C68.255 49.462 68.4116 49.3363 68.5933 49.3551L143.639 58.5325C143.739 58.545 143.827 58.6016 143.877 58.6896C143.927 58.7776 143.933 58.8782 143.896 58.9724L136.83 76.4972L181.368 81.708C181.469 81.7206 181.556 81.7772 181.606 81.8652C181.657 81.9532 181.663 82.0537 181.625 82.148L162.682 129.115C164.618 128.486 170.663 126.915 181.462 127.405C194.561 128.002 203.099 132.308 203.187 132.352C203.343 132.434 203.406 132.629 203.325 132.786C203.268 132.899 203.155 132.962 203.043 132.962V132.968Z" fill="#B5C9CC"/>
<path d="M169.99 110.292L115.867 103.883L115.794 104.507L169.917 110.917L169.99 110.292Z" fill="#B5C9CC"/>
<path d="M60.872 37.2933V35.791C60.872 33.9221 61.2171 31.9513 61.8414 30.0213C63.4094 25.1376 66.7132 20.4882 70.53 18.273C72.9605 16.8675 75.1837 16.6893 76.8788 17.5346L73.5343 15.6046C72.7325 15.0699 71.7935 14.7898 70.753 14.7898C70.5958 14.7898 70.4436 14.7949 70.2813 14.8102C70.1191 14.8203 69.9612 14.8407 69.794 14.8662C69.6267 14.8865 69.4638 14.9171 69.2966 14.9578C69.1293 14.9935 68.9614 15.0393 68.7892 15.0953C68.444 15.1972 68.0938 15.3296 67.7387 15.4824C67.5608 15.5587 67.3835 15.6504 67.2006 15.737C67.0176 15.8286 66.8404 15.9305 66.6574 16.0324C61.3288 19.1235 57.0049 26.9658 57.0049 33.5503V35.0526C57.0049 41.6371 65.8306 48.792 65.8306 48.792L69.4081 50.8188C69.3473 50.7831 69.2865 50.7373 69.2258 50.6813C66.5917 48.242 60.867 42.3551 60.867 37.2882L60.872 37.2933ZM71.4126 23.4469C71.4433 23.6099 71.4634 23.7728 71.474 23.9511C71.479 24.0071 71.484 24.0631 71.484 24.1293C71.4941 24.2261 71.4941 24.3279 71.4941 24.4298C71.4941 27.5158 69.3373 31.274 66.6675 32.817C66.5716 32.873 66.4752 32.924 66.3787 32.9749C66.2872 33.0258 66.1858 33.0665 66.0943 33.1123C66.0028 33.1582 65.9064 33.1888 65.8149 33.2244C65.8049 33.2295 65.7999 33.2295 65.7899 33.2346C66.2058 35.5975 68.1646 36.4225 70.535 35.0577C73.1992 33.5096 75.356 29.7565 75.356 26.6653C75.356 23.9307 73.6609 22.6322 71.4126 23.452V23.4469Z" fill="#B5C9CC"/>
<path opacity="0.3" d="M60.872 37.2933V35.791C60.872 33.9221 61.2171 31.9513 61.8414 30.0213C63.4094 25.1376 66.7132 20.4882 70.53 18.273C72.9605 16.8675 75.1837 16.6893 76.8788 17.5346L73.5343 15.6046C72.7325 15.0699 71.7935 14.7898 70.753 14.7898C70.5958 14.7898 70.4436 14.7949 70.2813 14.8102C70.1191 14.8203 69.9612 14.8407 69.794 14.8662C69.6267 14.8865 69.4638 14.9171 69.2966 14.9578C69.1293 14.9935 68.9614 15.0393 68.7892 15.0953C68.444 15.1972 68.0938 15.3296 67.7387 15.4824C67.5608 15.5587 67.3835 15.6504 67.2006 15.737C67.0176 15.8286 66.8404 15.9305 66.6574 16.0324C61.3288 19.1235 57.0049 26.9658 57.0049 33.5503V35.0526C57.0049 41.6371 65.8306 48.792 65.8306 48.792L69.4081 50.8188C69.3473 50.7831 69.2865 50.7373 69.2258 50.6813C66.5917 48.242 60.867 42.3551 60.867 37.2882L60.872 37.2933Z" fill="black"/>
<path opacity="0.5" d="M71.4118 23.4468C71.4425 23.6098 71.4626 23.7727 71.4732 23.951C71.4782 24.007 71.4833 24.063 71.4833 24.1292C71.4933 24.226 71.4933 24.3278 71.4933 24.4296C71.4933 27.5157 69.3365 31.2739 66.6667 32.8169C66.5708 32.8729 66.4744 32.9238 66.3779 32.9748C66.2864 33.0257 66.185 33.0664 66.0935 33.1123C66.002 33.1581 65.9056 33.1887 65.8141 33.2243C65.8041 33.2294 65.7991 33.2294 65.7891 33.2345C66.205 35.5973 68.1638 36.4223 70.5342 35.0576C73.1984 33.5095 75.3552 29.7563 75.3552 26.6652C75.3552 23.9306 73.6601 22.6321 71.4118 23.4519V23.4468Z" fill="black"/>
<path d="M80.1824 24.603C80.1824 18.0185 75.8582 15.182 70.5298 18.2731C65.1958 21.3642 60.877 29.2066 60.877 35.7911V37.2882C60.877 42.3603 66.6015 48.2421 69.2356 50.6813C69.8752 51.2772 70.9051 51.0837 71.2859 50.2994C73.5592 45.6296 80.1824 31.5593 80.1824 26.1053V24.6081V24.603ZM70.5298 35.0527C67.865 36.5957 65.7032 35.3429 65.7032 32.2569C65.7032 29.1658 67.865 25.4127 70.5298 23.8697C73.194 22.3267 75.3558 23.5794 75.3558 26.6655C75.3558 29.7515 73.194 33.5097 70.5298 35.0527Z" fill="#B5C9CC"/>
<path d="M80.1824 24.603C80.1824 18.0185 75.8582 15.182 70.5298 18.2731C65.1958 21.3642 60.877 29.2066 60.877 35.7911V37.2882C60.877 42.3603 66.6015 48.2421 69.2356 50.6813C69.8752 51.2772 70.9051 51.0837 71.2859 50.2994C73.5592 45.6296 80.1824 31.5593 80.1824 26.1053V24.6081V24.603ZM70.5298 35.0527C67.865 36.5957 65.7032 35.3429 65.7032 32.2569C65.7032 29.1658 67.865 25.4127 70.5298 23.8697C73.194 22.3267 75.3558 23.5794 75.3558 26.6655C75.3558 29.7515 73.194 33.5097 70.5298 35.0527Z" fill="#B5C9CC"/>
<path d="M159.846 69.0298V67.5281C159.846 65.6588 160.192 63.6882 160.816 61.7581C162.384 56.8745 165.688 52.225 169.505 50.0098C171.935 48.6044 174.158 48.4261 175.853 49.2715L172.509 47.3414C171.707 46.8067 170.768 46.5266 169.728 46.5266C169.57 46.5266 169.418 46.5317 169.256 46.547C169.094 46.5572 168.936 46.5775 168.769 46.603C168.601 46.6234 168.438 46.654 168.271 46.6947C168.104 46.7303 167.936 46.7762 167.764 46.8322C167.419 46.9341 167.068 47.0664 166.713 47.2192C166.535 47.2956 166.358 47.3872 166.175 47.4738C165.992 47.5655 165.815 47.6673 165.632 47.7692C160.304 50.8603 155.979 58.7027 155.979 65.2873V66.7896C155.979 73.3738 164.805 80.5289 164.805 80.5289L168.383 82.5554C168.322 82.5202 168.261 82.4743 168.2 82.4184C165.566 79.9789 159.841 74.0917 159.841 69.0248L159.846 69.0298ZM170.387 55.1837C170.418 55.3467 170.438 55.5097 170.449 55.6879C170.454 55.7439 170.459 55.7999 170.459 55.8662C170.469 55.9629 170.469 56.0647 170.469 56.1666C170.469 59.2526 168.312 63.0106 165.642 64.5537C165.546 64.6097 165.45 64.6606 165.353 64.7115C165.262 64.7624 165.16 64.8033 165.069 64.8492C164.977 64.895 164.881 64.9258 164.79 64.961C164.779 64.9661 164.774 64.9661 164.764 64.9717C165.18 67.3345 167.139 68.1592 169.51 66.7946C172.174 65.2464 174.331 61.4933 174.331 58.4022C174.331 55.6675 172.635 54.369 170.387 55.1888V55.1837Z" fill="#B5C9CC"/>
<path opacity="0.3" d="M159.846 69.0298V67.5281C159.846 65.6588 160.192 63.6882 160.816 61.7581C162.384 56.8745 165.688 52.225 169.505 50.0098C171.935 48.6044 174.158 48.4261 175.853 49.2715L172.509 47.3414C171.707 46.8067 170.768 46.5266 169.728 46.5266C169.57 46.5266 169.418 46.5317 169.256 46.547C169.094 46.5572 168.936 46.5775 168.769 46.603C168.601 46.6234 168.438 46.654 168.271 46.6947C168.104 46.7303 167.936 46.7762 167.764 46.8322C167.419 46.9341 167.068 47.0664 166.713 47.2192C166.535 47.2956 166.358 47.3872 166.175 47.4738C165.992 47.5655 165.815 47.6673 165.632 47.7692C160.304 50.8603 155.979 58.7027 155.979 65.2873V66.7896C155.979 73.3738 164.805 80.5289 164.805 80.5289L168.383 82.5554C168.322 82.5202 168.261 82.4743 168.2 82.4184C165.566 79.9789 159.841 74.0917 159.841 69.0248L159.846 69.0298Z" fill="black"/>
<path opacity="0.5" d="M170.387 55.1834C170.418 55.3463 170.438 55.5093 170.449 55.6875C170.454 55.7435 170.459 55.7995 170.459 55.8658C170.469 55.9625 170.469 56.0643 170.469 56.1662C170.469 59.2522 168.312 63.0104 165.642 64.5536C165.546 64.6095 165.45 64.6604 165.353 64.7114C165.262 64.7623 165.161 64.8031 165.069 64.849C164.978 64.8949 164.881 64.9251 164.79 64.9609C164.78 64.9659 164.775 64.9659 164.765 64.971C165.181 67.3338 167.139 68.1591 169.51 66.7938C172.174 65.2463 174.331 61.4929 174.331 58.4018C174.331 55.6672 172.636 54.3686 170.387 55.1885V55.1834Z" fill="black"/>
<path d="M179.157 56.3396C179.157 49.7551 174.832 46.9186 169.504 50.0097C164.17 53.1008 159.852 60.9432 159.852 67.5274V69.0246C159.852 74.0972 165.576 79.9787 168.21 82.4182C168.85 83.0135 169.879 82.8205 170.26 82.0361C172.534 77.3664 179.157 63.2958 179.157 57.8418V56.3447V56.3396ZM169.504 66.7894C166.839 68.3326 164.678 67.0798 164.678 63.9935C164.678 60.9024 166.839 57.1493 169.504 55.6063C172.168 54.0633 174.33 55.3161 174.33 58.402C174.33 61.4881 172.168 65.2463 169.504 66.7894Z" fill="#B5C9CC"/>
<path d="M179.157 56.3396C179.157 49.7551 174.832 46.9186 169.504 50.0097C164.17 53.1008 159.852 60.9432 159.852 67.5274V69.0246C159.852 74.0972 165.576 79.9787 168.21 82.4182C168.85 83.0135 169.879 82.8205 170.26 82.0361C172.534 77.3664 179.157 63.2958 179.157 57.8418V56.3447V56.3396ZM169.504 66.7894C166.839 68.3326 164.678 67.0798 164.678 63.9935C164.678 60.9024 166.839 57.1493 169.504 55.6063C172.168 54.0633 174.33 55.3161 174.33 58.402C174.33 61.4881 172.168 65.2463 169.504 66.7894Z" fill="#B5C9CC"/>
<path d="M110.359 94.1725V92.6709C110.359 90.8015 110.704 88.8309 111.329 86.9006C112.897 82.0172 116.201 77.3677 120.017 75.1526C122.448 73.7471 124.671 73.5686 126.366 74.414L123.022 72.4843C122.22 71.9494 121.281 71.6697 120.24 71.6697C120.083 71.6697 119.931 71.6747 119.769 71.6898C119.606 71.6999 119.449 71.7206 119.281 71.7457C119.114 71.7659 118.951 71.7967 118.784 71.8375C118.617 71.8733 118.449 71.9192 118.276 71.9752C117.931 72.077 117.581 72.209 117.226 72.3617C117.048 72.4384 116.871 72.5302 116.688 72.6163C116.505 72.7081 116.328 72.8099 116.145 72.9117C110.816 76.0031 106.492 83.8451 106.492 90.43V91.9323C106.492 98.5166 115.318 105.672 115.318 105.672L118.895 107.698C118.835 107.663 118.774 107.617 118.713 107.561C116.079 105.122 110.354 99.2344 110.354 94.1675L110.359 94.1725ZM120.9 80.3264C120.931 80.4892 120.951 80.6526 120.961 80.8305C120.966 80.8864 120.971 80.943 120.971 81.009C120.981 81.1058 120.981 81.2076 120.981 81.3095C120.981 84.3951 118.825 88.1533 116.155 89.6965C116.059 89.7524 115.962 89.8033 115.866 89.8542C115.775 89.9052 115.673 89.946 115.582 89.9919C115.49 90.0378 115.394 90.0686 115.302 90.1038C115.292 90.1088 115.287 90.1088 115.277 90.1145C115.693 92.4773 117.652 93.302 120.022 91.9373C122.686 90.3892 124.843 86.636 124.843 83.5447C124.843 80.8104 123.148 79.5117 120.9 80.3314V80.3264Z" fill="#B5C9CC"/>
<path opacity="0.3" d="M110.359 94.1725V92.6709C110.359 90.8015 110.704 88.8309 111.329 86.9006C112.897 82.0172 116.201 77.3677 120.017 75.1526C122.448 73.7471 124.671 73.5686 126.366 74.414L123.022 72.4843C122.22 71.9494 121.281 71.6697 120.24 71.6697C120.083 71.6697 119.931 71.6747 119.769 71.6898C119.606 71.6999 119.449 71.7206 119.281 71.7457C119.114 71.7659 118.951 71.7967 118.784 71.8375C118.617 71.8733 118.449 71.9192 118.276 71.9752C117.931 72.077 117.581 72.209 117.226 72.3617C117.048 72.4384 116.871 72.5302 116.688 72.6163C116.505 72.7081 116.328 72.8099 116.145 72.9117C110.816 76.0031 106.492 83.8451 106.492 90.43V91.9323C106.492 98.5166 115.318 105.672 115.318 105.672L118.895 107.698C118.835 107.663 118.774 107.617 118.713 107.561C116.079 105.122 110.354 99.2344 110.354 94.1675L110.359 94.1725Z" fill="black"/>
<path opacity="0.5" d="M120.9 80.3264C120.931 80.4892 120.951 80.652 120.962 80.8305C120.967 80.8865 120.972 80.9424 120.972 81.0084C120.982 81.1052 120.982 81.207 120.982 81.3089C120.982 84.3951 118.825 88.1534 116.155 89.6965C116.059 89.7525 115.963 89.8034 115.866 89.8543C115.775 89.9052 115.673 89.9461 115.582 89.992C115.49 90.0378 115.394 90.068 115.302 90.1038C115.292 90.1089 115.287 90.1089 115.277 90.1139C115.693 92.4767 117.652 93.302 120.023 91.9368C122.687 90.3892 124.843 86.636 124.843 83.5447C124.843 80.8104 123.148 79.5118 120.9 80.3314V80.3264Z" fill="black"/>
<path d="M129.669 81.4823C129.669 74.898 125.345 72.0613 120.017 75.1526C114.683 78.2439 110.364 86.086 110.364 92.6703V94.1675C110.364 99.2401 116.089 105.122 118.723 107.561C119.362 108.156 120.392 107.963 120.773 107.179C123.046 102.509 129.669 88.4387 129.669 82.9846V81.4874V81.4823ZM120.017 91.9323C117.352 93.4755 115.19 92.2227 115.19 89.1364C115.19 86.0451 117.352 82.2919 120.017 80.7494C122.681 79.2063 124.843 80.459 124.843 83.5447C124.843 86.631 122.681 90.3892 120.017 91.9323Z" fill="#B5C9CC"/>
<path d="M129.669 81.4823C129.669 74.898 125.345 72.0613 120.017 75.1526C114.683 78.2439 110.364 86.086 110.364 92.6703V94.1675C110.364 99.2401 116.089 105.122 118.723 107.561C119.362 108.156 120.392 107.963 120.773 107.179C123.046 102.509 129.669 88.4387 129.669 82.9846V81.4874V81.4823ZM120.017 91.9323C117.352 93.4755 115.19 92.2227 115.19 89.1364C115.19 86.0451 117.352 82.2919 120.017 80.7494C122.681 79.2063 124.843 80.459 124.843 83.5447C124.843 86.631 122.681 90.3892 120.017 91.9323Z" fill="#B5C9CC"/>
<path d="M274.706 161.752V156.233L233.656 146.761V152.273C233.656 152.399 233.719 152.55 233.844 152.732L249.831 175.222C250.225 175.776 250.645 175.681 250.77 175.015L252.793 164.461C252.919 163.795 253.57 163.217 254.247 163.179L274.186 161.897C274.524 161.878 274.7 161.821 274.7 161.758L274.706 161.752Z" fill="#5E8B91"/>
<path opacity="0.3" d="M274.706 161.752V156.233L233.656 146.761V152.273C233.656 152.399 233.719 152.55 233.844 152.732L249.831 175.222C250.225 175.776 250.645 175.681 250.77 175.015L252.793 164.461C252.919 163.795 253.57 163.217 254.247 163.179L274.186 161.897C274.524 161.878 274.7 161.821 274.7 161.758L274.706 161.752Z" fill="#024639"/>
<path opacity="0.2" d="M250.181 175.537C250.45 175.663 250.688 175.487 250.776 175.016L252.8 164.462C252.85 164.217 252.969 163.978 253.132 163.777V156.027L250.175 160.364V175.531L250.181 175.537Z" fill="black"/>
<path d="M250.783 169.497L252.806 158.943C252.931 158.277 253.583 157.699 254.259 157.661L274.199 156.379C274.875 156.335 274.888 156.171 274.23 156.014L234.339 146.497C233.681 146.34 233.468 146.661 233.857 147.214L249.843 169.704C250.238 170.257 250.658 170.163 250.783 169.497Z" fill="#B5C9CC"/>
</g>
<defs>
<clipPath id="clip0_841_15645">
<rect width="275" height="176" fill="white"/>
</clipPath>
</defs>
</svg>
