<svg width="120" height="120" viewBox="0 0 120 120" fill="none" xmlns="http://www.w3.org/2000/svg">
<path d="M25 75C25 55.67 40.67 40 60 40C79.33 40 95 55.67 95 75C95 94.33 79.33 110 60 110C40.67 110 25 94.33 25 75Z" fill="#3F757C"/>
<path d="M45 75C45 72.2386 47.2386 70 50 70H50.0359C52.7973 70 55.0359 72.2386 55.0359 75C55.0359 77.7614 52.7973 80 50.0359 80H50C47.2386 80 45 77.7614 45 75Z" fill="#3F757C"/>
<path d="M64.9641 75C64.9641 72.2386 67.2027 70 69.9641 70H70C72.7614 70 75 72.2386 75 75C75 77.7614 72.7614 80 70 80H69.9641C67.2027 80 64.9641 77.7614 64.9641 75Z" fill="#3F757C"/>
<path fill-rule="evenodd" clip-rule="evenodd" d="M60 6.25C45.5025 6.25 33.75 18.0025 33.75 32.5V46.4953C26.0647 53.5764 21.25 63.7259 21.25 75C21.25 96.401 38.599 113.75 60 113.75C81.401 113.75 98.75 96.401 98.75 75C98.75 63.7259 93.9353 53.5764 86.25 46.4953V32.5C86.25 18.0025 74.4975 6.25 60 6.25ZM78.75 41.0802V32.5C78.75 22.1447 70.3553 13.75 60 13.75C49.6447 13.75 41.25 22.1447 41.25 32.5V41.0802C46.8061 38.0024 53.1984 36.25 60 36.25C66.8016 36.25 73.1939 38.0024 78.75 41.0802ZM60 43.75C42.7411 43.75 28.75 57.7411 28.75 75C28.75 92.2589 42.7411 106.25 60 106.25C77.2589 106.25 91.25 92.2589 91.25 75C91.25 57.7411 77.2589 43.75 60 43.75Z" fill="#3F757C"/>
<circle cx="70.1998" cy="75" r="5.4" fill="white"/>
<circle cx="49.7994" cy="75" r="5.4" fill="white"/>
</svg>
