<svg width="100" height="100" viewBox="0 0 100 100" fill="none" xmlns="http://www.w3.org/2000/svg">
<path d="M44.0257 7.51685C45.759 6.19185 47.6631 5.2085 50.0006 5.2085C52.3381 5.2085 54.2423 6.19185 55.9756 7.51685C57.6006 8.75435 59.3922 10.5459 61.4881 12.6418L61.634 12.7876C63.7798 14.9335 65.6465 15.7751 68.534 15.7751C68.8923 15.7751 69.3507 15.7626 69.8674 15.7501C71.1799 15.7126 72.8756 15.6627 74.359 15.7877C76.5298 15.9711 79.2506 16.5543 81.3298 18.6126C83.4215 20.6876 84.0174 23.421 84.209 25.6085C84.3382 27.1043 84.2882 28.8126 84.2507 30.1334C84.2382 30.6501 84.2257 31.1043 84.2257 31.4668C84.2257 33.346 84.4339 34.396 84.7964 35.2252C85.1672 36.0752 85.8215 36.9752 87.2132 38.3669L87.359 38.5127C89.4549 40.6086 91.2465 42.4002 92.484 44.0252C93.809 45.7586 94.7923 47.6627 94.7923 50.0002C94.7923 52.3377 93.809 54.2418 92.484 55.9751C91.2465 57.6001 89.4549 59.3918 87.359 61.4876L87.2132 61.6335C85.8215 63.0251 85.1672 63.9251 84.7964 64.7751C84.4339 65.6043 84.2257 66.6543 84.2257 68.5335C84.2257 68.896 84.2382 69.3502 84.2507 69.8669C84.2882 71.1877 84.3382 72.896 84.209 74.3918C84.0174 76.5793 83.4215 79.3127 81.3298 81.3877C79.2506 83.446 76.5298 84.0293 74.359 84.2126C72.8756 84.3376 71.1799 84.2877 69.8674 84.2502C69.3507 84.2377 68.8965 84.2252 68.534 84.2252C66.6965 84.2252 65.6632 84.4086 64.8507 84.7461C64.0382 85.0794 63.1673 85.6793 61.859 86.9877C61.5798 87.2668 61.2089 87.6628 60.7839 88.1211C59.8256 89.1461 58.5797 90.4794 57.4172 91.5002C55.6506 93.0419 53.1173 94.7918 50.0006 94.7918C46.884 94.7918 44.3507 93.0419 42.5841 91.5002C41.4216 90.4794 40.1757 89.1461 39.2174 88.1211C38.7924 87.6628 38.4215 87.2668 38.1423 86.9877C36.834 85.6793 35.9631 85.0794 35.1506 84.7461C34.3381 84.4086 33.3048 84.2252 31.4673 84.2252C31.1048 84.2252 30.6506 84.2377 30.1339 84.2502C28.8214 84.2877 27.1257 84.3376 25.6423 84.2126C23.4715 84.0293 20.7507 83.446 18.6715 81.3877C16.5798 79.3127 15.9839 76.5793 15.7923 74.3918C15.6631 72.896 15.7131 71.1877 15.7506 69.8669C15.7631 69.3502 15.7756 68.896 15.7756 68.5335C15.7756 66.6543 15.5674 65.6043 15.2049 64.7751C14.8341 63.9251 14.1798 63.0251 12.7881 61.6335L12.6423 61.4876C10.5464 59.3918 8.75483 57.6001 7.51733 55.9751C6.19233 54.2418 5.20898 52.3377 5.20898 50.0002C5.20898 47.6627 6.19233 45.7586 7.51733 44.0252C8.75483 42.4002 10.5464 40.6086 12.6423 38.5127L12.7881 38.3669C14.934 36.221 15.7756 34.3502 15.7756 31.4668C15.7756 31.1043 15.7631 30.6501 15.7506 30.1334C15.7131 28.8209 15.6632 27.1252 15.7882 25.6418C15.9715 23.471 16.5548 20.7502 18.6131 18.671C20.6881 16.5794 23.4215 15.9835 25.609 15.7918C27.1048 15.6626 28.8131 15.7126 30.1339 15.7501C30.6506 15.7626 31.1048 15.7751 31.4673 15.7751C34.3507 15.7751 36.2215 14.9335 38.3673 12.7876L38.5132 12.6418C40.6091 10.5459 42.4007 8.75435 44.0257 7.51685Z" fill="#1D707C"/>
<path d="M66.1965 37.6598C67.259 39.7014 66.4673 42.2182 64.4257 43.2807C60.3757 45.389 56.4798 49.8764 53.4381 54.3098C51.9673 56.4598 50.784 58.4598 49.9715 59.9223C49.5132 60.7307 48.9715 61.7932 48.759 62.2224C48.1006 63.589 46.7505 64.4932 45.238 64.5807C43.7214 64.6641 42.2797 63.9181 41.4714 62.6347C40.613 61.2681 39.1966 59.9515 37.8091 58.9057C37.4091 58.5974 36.1131 57.7641 35.5131 57.3849C33.4923 56.2849 32.7423 53.7557 33.8381 51.7349C34.9381 49.7099 37.4673 48.964 39.4881 50.0599H39.4965L40.5255 50.6723C41.1172 51.0431 41.9215 51.5723 42.8215 52.2514C43.2381 52.5639 43.6965 52.9224 44.1673 53.3224C44.859 52.1807 45.659 50.9181 46.5631 49.5972C49.7715 44.9222 54.6256 38.9889 60.5756 35.8889C62.6172 34.8264 65.134 35.6181 66.1965 37.6598Z" fill="white"/>
</svg>
