<svg width="101" height="100" viewBox="0 0 101 100" fill="none" xmlns="http://www.w3.org/2000/svg">
<path d="M44.5257 7.51669C46.259 6.19169 48.1631 5.20834 50.5006 5.20834C52.8381 5.20834 54.7423 6.19169 56.4756 7.51669C58.1006 8.75419 59.8922 10.5458 61.9881 12.6416L62.134 12.7875C64.2798 14.9333 66.1465 15.7749 69.034 15.7749C69.3923 15.7749 69.8507 15.7624 70.3674 15.7499C71.6799 15.7124 73.3756 15.6626 74.859 15.7876C77.0298 15.9709 79.7506 16.5541 81.8298 18.6125C83.9215 20.6875 84.5174 23.4208 84.709 25.6083C84.8382 27.1042 84.7882 28.8124 84.7507 30.1333C84.7382 30.6499 84.7257 31.1042 84.7257 31.4667C84.7257 33.3458 84.9339 34.3959 85.2964 35.225C85.6672 36.075 86.3215 36.975 87.7132 38.3667L87.859 38.5126C89.9549 40.6084 91.7465 42.4001 92.984 44.0251C94.309 45.7584 95.2923 47.6625 95.2923 50C95.2923 52.3375 94.309 54.2416 92.984 55.9749C91.7465 57.5999 89.9549 59.3916 87.859 61.4874L87.7132 61.6333C86.3215 63.025 85.6672 63.925 85.2964 64.775C84.9339 65.6042 84.7257 66.6542 84.7257 68.5333C84.7257 68.8958 84.7382 69.3501 84.7507 69.8667C84.7882 71.1876 84.8382 72.8959 84.709 74.3917C84.5174 76.5792 83.9215 79.3125 81.8298 81.3875C79.7506 83.4459 77.0298 84.0291 74.859 84.2124C73.3756 84.3374 71.6799 84.2876 70.3674 84.2501C69.8507 84.2376 69.3965 84.2251 69.034 84.2251C67.1965 84.2251 66.1632 84.4084 65.3507 84.7459C64.5382 85.0792 63.6673 85.6792 62.359 86.9875C62.0798 87.2667 61.7089 87.6626 61.2839 88.1209C60.3256 89.1459 59.0797 90.4792 57.9172 91.5C56.1506 93.0417 53.6173 94.7917 50.5006 94.7917C47.384 94.7917 44.8507 93.0417 43.0841 91.5C41.9216 90.4792 40.6757 89.1459 39.7174 88.1209C39.2924 87.6626 38.9215 87.2667 38.6423 86.9875C37.334 85.6792 36.4631 85.0792 35.6506 84.7459C34.8381 84.4084 33.8048 84.2251 31.9673 84.2251C31.6048 84.2251 31.1506 84.2376 30.6339 84.2501C29.3214 84.2876 27.6257 84.3374 26.1423 84.2124C23.9715 84.0291 21.2507 83.4459 19.1715 81.3875C17.0798 79.3125 16.4839 76.5792 16.2923 74.3917C16.1631 72.8959 16.2131 71.1876 16.2506 69.8667C16.2631 69.3501 16.2756 68.8958 16.2756 68.5333C16.2756 66.6542 16.0674 65.6042 15.7049 64.775C15.3341 63.925 14.6798 63.025 13.2881 61.6333L13.1423 61.4874C11.0464 59.3916 9.25483 57.5999 8.01733 55.9749C6.69233 54.2416 5.70898 52.3375 5.70898 50C5.70898 47.6625 6.69233 45.7584 8.01733 44.0251C9.25483 42.4001 11.0464 40.6084 13.1423 38.5126L13.2881 38.3667C15.434 36.2209 16.2756 34.35 16.2756 31.4667C16.2756 31.1042 16.2631 30.6499 16.2506 30.1333C16.2131 28.8208 16.1632 27.125 16.2882 25.6417C16.4715 23.4709 17.0548 20.75 19.1131 18.6709C21.1881 16.5792 23.9215 15.9833 26.109 15.7916C27.6048 15.6625 29.3131 15.7124 30.6339 15.7499C31.1506 15.7624 31.6048 15.7749 31.9673 15.7749C34.8507 15.7749 36.7215 14.9333 38.8673 12.7875L39.0132 12.6416C41.1091 10.5458 42.9007 8.75419 44.5257 7.51669Z" fill="#3F757C"/>
<path d="M66.6965 37.6595C67.759 39.7011 66.9673 42.2179 64.9257 43.2804C60.8757 45.3887 56.9798 49.8761 53.9381 54.3094C52.4673 56.4594 51.284 58.4595 50.4715 59.922C50.0132 60.7304 49.4715 61.7929 49.259 62.222C48.6006 63.5887 47.2505 64.4929 45.738 64.5804C44.2214 64.6638 42.7797 63.9178 41.9714 62.6344C41.113 61.2678 39.6966 59.9512 38.3091 58.9054C37.9091 58.597 36.6131 57.7638 36.0131 57.3846C33.9923 56.2846 33.2423 53.7554 34.3381 51.7346C35.4381 49.7096 37.9673 48.9637 39.9881 50.0596H39.9965L41.0255 50.6719C41.6172 51.0428 42.4215 51.572 43.3215 52.2511C43.7381 52.5636 44.1965 52.9221 44.6673 53.3221C45.359 52.1804 46.159 50.9177 47.0631 49.5969C50.2715 44.9219 55.1256 38.9886 61.0756 35.8886C63.1172 34.8261 65.634 35.6178 66.6965 37.6595Z" fill="white"/>
</svg>
